<?xml version="1.0" encoding="UTF-8" standalone="no"?>
<svg
   xmlns:dc="http://purl.org/dc/elements/1.1/"
   xmlns:cc="http://creativecommons.org/ns#"
   xmlns:rdf="http://www.w3.org/1999/02/22-rdf-syntax-ns#"
   xmlns:svg="http://www.w3.org/2000/svg"
   xmlns="http://www.w3.org/2000/svg"
   xmlns:sodipodi="http://sodipodi.sourceforge.net/DTD/sodipodi-0.dtd"
   xmlns:inkscape="http://www.inkscape.org/namespaces/inkscape"
   width="4in"
   height="2.23333in"
   viewBox="0 0 1200 670"
   version="1.1"
   id="svg1093"
   sodipodi:docname="as_api.svg"
   inkscape:version="0.92.5 (2060ec1f9f, 2020-04-08)"
   inkscape:export-filename="/home/mgimenez/Documents/local/icons/as_api.png"
   inkscape:export-xdpi="152.92"
   inkscape:export-ydpi="152.92">
  <metadata
     id="metadata1099">
    <rdf:RDF>
      <cc:Work
         rdf:about="">
        <dc:format>image/svg+xml</dc:format>
        <dc:type
           rdf:resource="http://purl.org/dc/dcmitype/StillImage" />
      </cc:Work>
    </rdf:RDF>
  </metadata>
  <defs
     id="defs1097" />
  <sodipodi:namedview
     pagecolor="#ffffff"
     bordercolor="#666666"
     borderopacity="1"
     objecttolerance="10"
     gridtolerance="10"
     guidetolerance="10"
     inkscape:pageopacity="0"
     inkscape:pageshadow="2"
     inkscape:window-width="1916"
     inkscape:window-height="1017"
     id="namedview1095"
     showgrid="false"
     inkscape:zoom="3.6744792"
     inkscape:cx="159.34231"
     inkscape:cy="107.19984"
     inkscape:window-x="0"
     inkscape:window-y="30"
     inkscape:window-maximized="0"
     inkscape:current-layer="svg1093" />
  <path
     d="m 484.21,124.02 c 12.8,0 45.52,2.24 55.21,-4.87 10.92,-8.05 14.8,-34.71 42.52,-45.28 38.18,-14.57 77.77,27.48 66.72,60.73 -12.68,38.29 -47.1,43.05 -81.4,43.11 0,0 -258.9,0 -258.9,0 -41.99,0.29 -60.79,21.2 -78.11,58.61 0,0 351.63,0 351.63,0 C 652.72,236.21 706.52,205.66 712.86,128.9 721.61,23.12 588.7,-32.03 515.1,42.56 493.96,63.94 485.62,94.77 484.21,124.02 Z"
     id="path1914"
     style="fill:#4e8490;fill-opacity:1" />
  <path
     d="m 772.36,236.32 c 0,0 58.61,0 58.61,0 2.71,-12.57 3.65,-18.44 11.87,-29.07 48.34,-62.2 129.92,15.51 74.41,65.37 -6.81,6.17 -14.15,9.75 -22.78,12.63 -15.75,5.17 -32.43,4.81 -48.81,4.81 0,0 -532.42,0 -532.42,0 0,0 -112.3,0 -112.3,0 -11.34,0.06 -23.5,-0.52 -33.78,5 -16.91,9.04 -36.35,36.53 -44.4,53.62 0,0 757.08,0 757.08,0 64.26,-0.82 115.53,-40.41 117.17,-107.48 0.53,-21.32 0.12,-39 -9.69,-58.62 -33.3,-66.43 -125.57,-83.81 -180.31,-33.12 -26.84,24.84 -34.3,51.74 -34.65,86.86 z"
     id="path1912"
     style="fill:#4e8490;fill-opacity:1" />
  <path
     style="fill:#4e8490;fill-opacity:1;stroke-width:0.31999955"
     d="M 61.189453 120.79883 C 57.367459 120.81308 53.57371 121.01824 49.978516 122.55664 C 42.948126 125.59984 33.28706 134.97808 29.322266 141.48047 L 4.8710938 211.02344 L 61.253906 211.02344 C 62.345105 204.06665 67.023403 186.64638 73.058594 182.86719 C 77.135388 180.31359 86.421826 180.94922 91.324219 180.94922 L 81.929688 211.02344 L 140.19141 211.02344 L 162.07031 143.35938 C 163.94871 127.385 154.70019 120.90264 140.19141 120.80664 L 65.013672 120.80664 C 63.740074 120.81144 62.463451 120.79408 61.189453 120.79883 z M 95.699219 139.26953 C 97.831024 139.24145 99.854034 139.82635 101.45703 141.27734 C 105.38663 144.84534 103.73093 152.10238 96.777344 154.45117 C 94.521347 154.67517 90.009956 154.62077 87.568359 154.45117 L 80.048828 154.45117 C 80.820027 151.10398 81.027163 148.71669 83.318359 145.6543 C 85.786756 142.3587 91.009247 139.33131 95.699219 139.26953 z "
     transform="matrix(3.1250045,0,0,3.1250045,-8.711187e-4,0)"
     id="path1910" />
  <path
     d="m 749.39,540.91 c -12.74,35.48 -51.1,86.93 -82.23,35.24 0,0 -177.31,-5.87 -177.31,-5.87 -0.77,12.16 -3.23,22.73 0,35.24 2.05,18.44 13.98,37.88 30.77,46.81 19.44,10.4 118.53,6.05 146.54,6.05 31.02,0 142.32,2.88 164.46,-3.82 66.31,-19.97 96.79,-103.43 99.85,-166.51 0,0 -240.81,-5.87 -240.81,-5.87 0,0 15.33,-22.91 15.33,-22.91 39.52,-47.39 60.02,-9.92 75,-3.87 9.28,3.76 23.02,3.23 33.01,3.29 0,0 88.1,0 88.1,0 11.51,-0.06 34.36,1.35 43.46,-6.05 18.86,-15.22 -1.17,-54.57 -16.03,-66.02 -14.69,-11.22 -33.42,-10.1 -50.92,-10.16 0,0 -223.19,0 -223.19,0 -54.21,0.06 -94.33,19.32 -120.05,70.48 -7.76,15.39 -32.01,75.18 -17.15,87.92 7.98,6.88 27.25,5.94 37.35,6.05 0,0 193.82,0 193.82,0 z"
     id="path1906"
     style="fill:#ff511c;fill-opacity:1" />
  <path
     style="fill:#ff511c;fill-opacity:0.98469388;stroke-width:0.31999955"
     d="M 316.33984 175.95117 C 314.59585 178.39917 312.88649 180.8726 311.21289 183.375 C 309.53609 185.8678 307.82054 188.51163 306.06055 191.29883 C 304.30375 194.07642 302.47252 197.08034 300.57812 200.30273 C 298.68693 203.52513 296.65256 206.96882 294.47656 210.63281 L 302.66797 210.63281 C 303.33677 209.36241 304.04205 208.09478 304.78125 206.83398 C 305.52045 205.56679 306.22378 204.31935 306.89258 203.09375 L 319.95898 203.09375 C 320.06138 204.30975 320.14993 205.54834 320.23633 206.80273 C 320.31633 208.05393 320.39694 209.33041 320.46094 210.63281 L 328.35742 210.63281 C 328.05022 207.96402 327.72505 205.10287 327.37305 202.04688 C 327.02105 198.99728 326.64061 195.94467 326.22461 192.88867 C 325.80221 189.83908 325.34773 186.86105 324.86133 183.93945 C 324.37173 181.01786 323.86448 178.35437 323.33008 175.95117 L 316.33984 175.95117 z M 318.14453 183.70117 C 318.48373 185.85157 318.73823 188.07898 318.92383 190.39258 C 319.11583 192.70297 319.28868 194.76215 319.45508 196.56055 L 310.05664 196.56055 C 311.32704 194.35895 312.64 192.20787 314 190.10547 C 315.36 187.99987 316.74293 185.86757 318.14453 183.70117 z "
     transform="matrix(3.1250045,0,0,3.1250045,-8.711187e-4,0)"
     id="path1904" />
  <path
     style="stroke-width:0.31999955;fill:#ff511c;fill-opacity:0.98469388"
     d="M 351.12305 175.44922 C 349.68625 175.44922 348.15419 175.5199 346.52539 175.6543 C 344.89979 175.7855 343.18104 176.01947 341.37305 176.35547 L 333.17773 210.63281 L 340.96875 210.63281 L 343.7793 199.07227 L 345.74414 199.07227 C 348.45454 199.07227 350.96641 198.83883 353.2832 198.36523 C 355.5968 197.89804 357.60566 197.12207 359.31445 196.04688 C 361.02965 194.97488 362.36829 193.57142 363.33789 191.82422 C 364.31069 190.07702 364.79883 187.94472 364.79883 185.41992 C 364.79883 183.87752 364.47664 182.48574 363.83984 181.24414 C 363.20624 179.99934 362.3001 178.94761 361.12891 178.09961 C 359.95451 177.23881 358.52092 176.58596 356.82812 176.13477 C 355.13213 175.67717 353.23504 175.44922 351.12305 175.44922 z M 350.46289 181.98438 C 352.47889 181.98438 354.03185 182.30939 355.12305 182.95898 C 356.20785 183.60218 356.75781 184.6872 356.75781 186.2168 C 356.75781 187.3752 356.52542 188.3511 356.07422 189.1543 C 355.62302 189.9511 354.98131 190.60519 354.16211 191.11719 C 353.33971 191.62599 352.34856 191.98943 351.19336 192.20703 C 350.04136 192.42783 348.76151 192.54102 347.35352 192.54102 L 345.39258 192.54102 L 347.80078 182.13477 C 348.20078 182.09957 348.61172 182.07106 349.01172 182.03906 C 349.41492 182.00386 349.89969 181.98438 350.46289 181.98438 z "
     transform="matrix(3.1250045,0,0,3.1250045,-8.711187e-4,0)"
     id="path1900" />
  <path
     d="m 1167.77,549.85 c 0,0 24.52,0 24.52,0 0,0 -26.23,108.38 -26.23,108.38 0,0 -24.35,0 -24.35,0 0,0 26.06,-108.38 26.06,-108.38 z"
     id="API"
     style="fill:#ff511c;fill-opacity:0.98469388" />
</svg>
