<?xml version="1.0" encoding="UTF-8" standalone="no"?>
<svg
   xmlns:dc="http://purl.org/dc/elements/1.1/"
   xmlns:cc="http://creativecommons.org/ns#"
   xmlns:rdf="http://www.w3.org/1999/02/22-rdf-syntax-ns#"
   xmlns:svg="http://www.w3.org/2000/svg"
   xmlns="http://www.w3.org/2000/svg"
   xmlns:sodipodi="http://sodipodi.sourceforge.net/DTD/sodipodi-0.dtd"
   xmlns:inkscape="http://www.inkscape.org/namespaces/inkscape"
   width="4in"
   height="2.23333in"
   viewBox="0 0 1200 670"
   version="1.1"
   id="svg3"
   sodipodi:docname="as_short.svg"
   inkscape:version="0.92.5 (2060ec1f9f, 2020-04-08)"
   inkscape:export-filename="/home/mgimenez/Documents/local/icons/as_short.png"
   inkscape:export-xdpi="183.61707"
   inkscape:export-ydpi="183.61707">
  <metadata
     id="metadata9">
    <rdf:RDF>
      <cc:Work
         rdf:about="">
        <dc:format>image/svg+xml</dc:format>
        <dc:type
           rdf:resource="http://purl.org/dc/dcmitype/StillImage" />
      </cc:Work>
    </rdf:RDF>
  </metadata>
  <defs
     id="defs7" />
  <sodipodi:namedview
     pagecolor="#ffffff"
     bordercolor="#666666"
     borderopacity="1"
     objecttolerance="10"
     gridtolerance="10"
     guidetolerance="10"
     inkscape:pageopacity="0"
     inkscape:pageshadow="2"
     inkscape:window-width="1916"
     inkscape:window-height="1017"
     id="namedview5"
     showgrid="false"
     inkscape:zoom="3.6145833"
     inkscape:cx="136.12526"
     inkscape:cy="102.43273"
     inkscape:window-x="0"
     inkscape:window-y="30"
     inkscape:window-maximized="0"
     inkscape:current-layer="svg3" />
  <path
     style="fill:#4e8490;fill-opacity:1;stroke:none"
     d="m 484.21,124.02 c 12.8,0 45.52,2.24 55.21,-4.87 10.92,-8.05 14.8,-34.71 42.52,-45.28 38.18,-14.57 77.77,27.48 66.72,60.73 -12.68,38.29 -47.1,43.05 -81.4,43.11 0,0 -258.9,0 -258.9,0 -41.99,0.29 -60.79,21.2 -78.11,58.61 0,0 351.63,0 351.63,0 C 652.72,236.21 706.52,205.66 712.86,128.9 721.61,23.12 588.7,-32.03 515.1,42.56 493.96,63.94 485.62,94.77 484.21,124.02 Z"
     id="path827" />
  <path
     style="fill:#4e8490;fill-opacity:1;stroke:none"
     d="m 772.36,236.32 c 0,0 58.61,0 58.61,0 2.71,-12.57 3.65,-18.44 11.87,-29.07 48.34,-62.2 129.92,15.51 74.41,65.37 -6.81,6.17 -14.15,9.75 -22.78,12.63 -15.75,5.17 -32.43,4.81 -48.81,4.81 0,0 -532.42,0 -532.42,0 0,0 -112.3,0 -112.3,0 -11.34,0.06 -23.5,-0.52 -33.78,5 -16.91,9.04 -36.35,36.53 -44.4,53.62 0,0 757.08,0 757.08,0 64.26,-0.82 115.53,-40.41 117.17,-107.48 0.53,-21.32 0.12,-39 -9.69,-58.62 -33.3,-66.43 -125.57,-83.81 -180.31,-33.12 -26.84,24.84 -34.3,51.74 -34.65,86.86 z"
     id="path825" />
  <path
     style="fill:#4e8490;fill-opacity:1;stroke-width:0.31999955;stroke:none"
     d="M 61.189453 120.79883 C 57.367459 120.81308 53.57371 121.01824 49.978516 122.55664 C 42.948126 125.59984 33.28706 134.97808 29.322266 141.48047 L 4.8710938 211.02344 L 61.253906 211.02344 C 62.345105 204.06665 67.023403 186.64638 73.058594 182.86719 C 77.135388 180.31359 86.421826 180.94922 91.324219 180.94922 L 81.929688 211.02344 L 140.19141 211.02344 L 162.07031 143.35938 C 163.94871 127.385 154.70019 120.90264 140.19141 120.80664 L 65.013672 120.80664 C 63.740074 120.81144 62.463451 120.79408 61.189453 120.79883 z M 95.699219 139.26953 C 97.831024 139.24145 99.854034 139.82635 101.45703 141.27734 C 105.38663 144.84534 103.73093 152.10238 96.777344 154.45117 C 94.521347 154.67517 90.009956 154.62077 87.568359 154.45117 L 80.048828 154.45117 C 80.820027 151.10398 81.027163 148.71669 83.318359 145.6543 C 85.786756 142.3587 91.009247 139.33131 95.699219 139.26953 z "
     transform="matrix(3.1250045,0,0,3.1250045,-8.711187e-4,0)"
     id="path823" />
  <path
     style="fill:#ff511c;fill-opacity:1;stroke:none"
     d="m 749.39,540.91 c -12.74,35.48 -51.1,86.93 -82.23,35.24 0,0 -177.31,-5.87 -177.31,-5.87 -0.77,12.16 -3.23,22.73 0,35.24 2.05,18.44 13.98,37.88 30.77,46.81 19.44,10.4 118.53,6.05 146.54,6.05 31.02,0 142.32,2.88 164.46,-3.82 66.31,-19.97 96.79,-103.43 99.85,-166.51 0,0 -240.81,-5.87 -240.81,-5.87 0,0 15.33,-22.91 15.33,-22.91 39.52,-47.39 60.02,-9.92 75,-3.87 9.28,3.76 23.02,3.23 33.01,3.29 0,0 88.1,0 88.1,0 11.51,-0.06 34.36,1.35 43.46,-6.05 18.86,-15.22 -1.17,-54.57 -16.03,-66.02 -14.69,-11.22 -33.42,-10.1 -50.92,-10.16 0,0 -223.19,0 -223.19,0 -54.21,0.06 -94.33,19.32 -120.05,70.48 -7.76,15.39 -32.01,75.18 -17.15,87.92 7.98,6.88 27.25,5.94 37.35,6.05 0,0 193.82,0 193.82,0 z"
     id="AS + Clouds" />
</svg>
