<?xml version="1.0" encoding="UTF-8" standalone="no"?>
<svg
   xmlns:dc="http://purl.org/dc/elements/1.1/"
   xmlns:cc="http://creativecommons.org/ns#"
   xmlns:rdf="http://www.w3.org/1999/02/22-rdf-syntax-ns#"
   xmlns:svg="http://www.w3.org/2000/svg"
   xmlns="http://www.w3.org/2000/svg"
   xmlns:sodipodi="http://sodipodi.sourceforge.net/DTD/sodipodi-0.dtd"
   xmlns:inkscape="http://www.inkscape.org/namespaces/inkscape"
   width="4in"
   height="2.23333in"
   viewBox="0 0 1200 670"
   version="1.1"
   id="svg3"
   sodipodi:docname="as_short_icon.svg"
   inkscape:version="0.92.5 (2060ec1f9f, 2020-04-08)"
   inkscape:export-filename="/home/mgimenez/Documents/local/icons/as_short_2.png"
   inkscape:export-xdpi="300"
   inkscape:export-ydpi="300">
  <metadata
     id="metadata9">
    <rdf:RDF>
      <cc:Work
         rdf:about="">
        <dc:format>image/svg+xml</dc:format>
        <dc:type
           rdf:resource="http://purl.org/dc/dcmitype/StillImage" />
        <dc:title></dc:title>
      </cc:Work>
    </rdf:RDF>
  </metadata>
  <defs
     id="defs7" />
  <sodipodi:namedview
     pagecolor="#ffffff"
     bordercolor="#666666"
     borderopacity="1"
     objecttolerance="10"
     gridtolerance="10"
     guidetolerance="10"
     inkscape:pageopacity="0"
     inkscape:pageshadow="2"
     inkscape:window-width="1916"
     inkscape:window-height="1017"
     id="namedview5"
     showgrid="false"
     inkscape:zoom="2.5558964"
     inkscape:cx="123.90445"
     inkscape:cy="110.71337"
     inkscape:window-x="0"
     inkscape:window-y="30"
     inkscape:window-maximized="0"
     inkscape:current-layer="svg3" />
  <path
     style="fill:#4e8490;fill-opacity:1;stroke:none;stroke-width:1"
     d="m 186.32578,60.826703 c -11.94375,0.04453 -23.79923,0.685657 -35.03423,5.493164 -21.97,9.510013 -52.160868,38.817063 -64.550866,59.137053 L 10.330659,342.77902 H 186.5272 c 3.41,-21.74 18.0297,-76.17842 36.8897,-87.98841 12.74,-7.98001 41.76016,-5.99366 57.08016,-5.99366 l -29.35795,93.98207 H 433.20725 L 501.57891,131.32853 C 507.44892,81.408513 478.54726,61.151109 433.20725,60.851109 H 198.27648 c -3.98,0.015 -7.96945,-0.03925 -11.9507,-0.02441 z m 107.84318,57.721027 c 6.6619,-0.0877 12.98381,1.74006 17.99318,6.27441 12.28002,11.15002 7.10595,33.8283 -14.62404,41.16828 -7.05,0.7 -21.14812,0.53 -28.77812,0 h -23.49857 c 2.41,-10.45998 3.0573,-17.92028 10.2173,-27.49026 7.71375,-10.29876 24.03406,-19.75937 38.69025,-19.95243 z"
     id="path823"
     inkscape:connector-curvature="0" />
  <path
     style="fill:#ff511c;fill-opacity:1;stroke:none"
     d="m 382.85642,518.90203 c -12.74,35.48 -51.1,86.93 -82.23,35.24 0,0 -177.31,-5.87 -177.31,-5.87 -0.77,12.16 -3.23,22.73 0,35.24 2.05,18.44 13.98,37.88 30.77,46.81 19.44,10.4 118.53,6.05 146.54,6.05 31.02,0 142.32,2.88 164.46,-3.82 66.31,-19.97 96.79,-103.43 99.85,-166.51 0,0 -240.81,-5.87 -240.81,-5.87 0,0 15.33,-22.91 15.33,-22.91 39.52,-47.39 60.02,-9.92 75,-3.87 9.28,3.76 23.02,3.23 33.01,3.29 0,0 88.1,0 88.1,0 11.51,-0.06 34.36,1.35 43.46,-6.05 18.86,-15.22 -1.17,-54.57 -16.03,-66.02 -14.69,-11.22 -33.42,-10.1 -50.92,-10.16 0,0 -223.19,0 -223.19,0 -54.21,0.06 -94.33,19.32 -120.05,70.48 -7.76,15.39 -32.01,75.18 -17.15,87.92 7.98,6.88 27.25,5.94 37.35,6.05 0,0 193.82,0 193.82,0 z"
     id="AS + Clouds"
     inkscape:connector-curvature="0" />
</svg>
