<?xml version="1.0" encoding="UTF-8" standalone="no"?>
<!DOCTYPE svg PUBLIC "-//W3C//DTD SVG 20010904//EN"
              "http://www.w3.org/TR/2001/REC-SVG-20010904/DTD/svg10.dtd">

<svg xmlns="http://www.w3.org/2000/svg"
     width="10in" height="1.94444in"
     viewBox="0 0 720 140">
  <path id="Primary"
        fill="#4E8490" stroke="black" stroke-width="0"
        d="M 608.00,28.00
           C 608.19,24.15 608.51,21.49 610.41,18.00
             622.06,-3.24 654.30,6.14 652.95,29.99
             652.42,39.32 645.03,48.15 635.91,50.34
             633.08,51.02 628.02,51.00 625.00,51.00
             625.00,51.00 556.00,51.00 556.00,51.00
             560.36,44.71 562.87,40.15 571.00,40.00
             571.00,40.00 626.00,40.00 626.00,40.00
             628.44,40.00 631.73,40.13 634.00,39.26
             640.98,36.58 644.78,28.37 639.60,22.05
             635.62,17.19 631.55,17.40 626.00,16.00
             626.00,16.00 619.00,28.00 619.00,28.00
             619.00,28.00 608.00,28.00 608.00,28.00 Z
           M 644.00,11.00
           C 644.00,11.00 643.00,11.00 643.00,11.00
             643.00,11.00 644.00,12.00 644.00,12.00
             644.00,12.00 644.00,11.00 644.00,11.00 Z
           M 681.00,30.00
           C 685.06,29.73 690.93,27.60 694.00,31.00
             708.86,29.60 714.95,51.34 708.59,63.00
             705.63,68.40 699.25,73.05 693.00,73.51
             693.00,73.51 682.00,73.00 682.00,73.00
             682.00,73.00 669.00,73.00 669.00,73.00
             669.00,73.00 654.42,73.67 654.42,73.67
             654.42,73.67 638.00,73.00 638.00,73.00
             638.00,73.00 622.00,73.99 622.00,73.99
             622.00,73.99 574.00,73.99 574.00,73.99
             574.00,73.99 545.00,73.99 545.00,73.99
             541.88,73.97 536.86,74.07 534.00,73.00
             534.00,73.00 543.38,64.56 543.38,64.56
             543.38,64.56 556.00,64.00 556.00,64.00
             556.00,64.00 584.00,64.00 584.00,64.00
             584.00,64.00 658.00,64.00 658.00,64.00
             658.00,64.00 694.00,64.00 694.00,64.00
             694.00,64.00 699.85,55.00 699.85,55.00
             699.85,55.00 701.00,46.00 701.00,46.00
             701.00,46.00 697.00,41.00 697.00,41.00
             697.00,41.00 683.00,40.00 683.00,40.00
             683.00,40.00 675.59,50.43 675.59,50.43
             675.59,50.43 666.00,51.00 666.00,51.00
             666.00,51.00 667.00,44.00 667.00,44.00
             667.00,44.00 669.00,44.00 669.00,44.00
             669.33,34.64 677.33,33.29 681.00,30.00 Z
           M 705.00,36.00
           C 705.00,36.00 704.00,36.00 704.00,36.00
             704.00,36.00 705.00,37.00 705.00,37.00
             705.00,37.00 705.00,36.00 705.00,36.00 Z
           M 640.00,37.00
           C 640.00,37.00 639.00,37.00 639.00,37.00
             639.00,37.00 640.00,38.00 640.00,38.00
             640.00,38.00 640.00,37.00 640.00,37.00 Z
           M 696.00,40.00
           C 696.00,40.00 695.00,40.00 695.00,40.00
             695.00,40.00 696.00,41.00 696.00,41.00
             696.00,41.00 696.00,40.00 696.00,40.00 Z
           M 565.00,42.00
           C 565.00,42.00 564.00,42.00 564.00,42.00
             564.00,42.00 565.00,43.00 565.00,43.00
             565.00,43.00 565.00,42.00 565.00,42.00 Z
           M 28.00,92.00
           C 30.46,87.64 32.33,88.03 37.00,88.00
             37.00,88.00 68.00,88.00 68.00,88.00
             74.66,88.00 80.81,87.24 87.00,90.00
             87.91,95.09 91.29,99.89 86.00,104.00
             86.26,108.59 82.74,121.18 79.00,124.00
             80.36,139.37 67.49,134.32 48.00,135.00
             48.00,135.00 51.00,130.00 51.00,130.00
             51.00,130.00 52.00,128.00 52.00,128.00
             51.13,123.17 52.45,121.48 54.00,117.00
             54.00,117.00 40.56,119.60 40.56,119.60
             40.56,119.60 35.00,129.00 35.00,129.00
             35.00,129.00 35.00,134.00 35.00,134.00
             35.00,134.00 7.00,135.00 7.00,135.00
             7.90,131.07 8.69,126.53 12.00,124.00
             11.90,119.08 13.93,110.04 18.00,107.00
             18.00,107.00 19.00,104.00 19.00,104.00
             19.00,104.00 18.00,101.00 18.00,101.00
             22.01,97.14 20.87,93.35 28.00,92.00 Z
           M 95.00,102.00
           C 94.50,98.11 96.00,90.30 100.17,88.58
             100.17,88.58 125.00,88.00 125.00,88.00
             125.00,88.00 123.00,92.00 123.00,92.00
             123.00,92.00 124.00,95.00 124.00,95.00
             124.00,95.00 122.00,95.00 122.00,95.00
             122.65,100.05 120.19,108.86 116.00,112.00
             116.00,112.00 115.00,115.00 115.00,115.00
             115.55,118.90 113.95,124.57 119.30,125.91
             119.30,125.91 126.00,125.91 126.00,125.91
             127.00,122.28 127.87,118.40 131.00,116.00
             130.91,111.52 132.35,104.80 136.00,102.00
             135.74,98.79 135.42,98.09 138.00,96.00
             138.00,96.00 139.00,88.00 139.00,88.00
             139.00,88.00 168.00,89.00 168.00,89.00
             168.00,89.00 160.36,109.88 160.36,109.88
             160.36,109.88 155.96,122.71 155.96,122.71
             155.96,122.71 148.00,132.00 148.00,132.00
             148.00,132.00 146.00,131.00 146.00,131.00
             142.05,136.74 127.55,135.00 121.00,135.00
             121.00,135.00 100.00,135.00 100.00,135.00
             97.41,134.97 93.25,135.00 90.97,133.74
             86.78,131.43 85.81,126.28 86.61,121.91
             87.12,119.09 88.56,115.72 89.58,113.00
             90.92,109.41 91.86,104.37 95.00,102.00 Z
           M 173.00,88.00
           C 173.00,88.00 209.00,88.00 209.00,88.00
             209.00,88.00 227.00,88.00 227.00,88.00
             226.29,91.10 224.54,98.99 221.58,100.43
             218.44,101.95 213.01,99.49 209.84,103.31
             207.95,105.59 205.59,113.85 204.63,117.01
             204.63,117.01 198.00,135.00 198.00,135.00
             198.00,135.00 171.00,135.00 171.00,135.00
             171.33,131.55 171.17,130.20 174.00,128.00
             174.00,128.00 178.00,110.00 178.00,110.00
             178.00,110.00 180.00,110.00 180.00,110.00
             180.00,110.00 181.00,108.00 181.00,108.00
             181.00,108.00 182.00,102.00 182.00,102.00
             182.00,102.00 169.00,101.00 169.00,101.00
             169.00,101.00 173.00,88.00 173.00,88.00 Z
           M 292.00,114.00
           C 292.78,122.81 286.17,130.89 278.00,133.74
             274.08,135.11 266.34,134.99 262.00,134.89
             262.00,134.89 235.00,134.89 235.00,134.89
             233.00,135.00 229.90,135.05 228.00,134.89
             214.84,131.93 222.38,117.69 225.00,110.00
             226.42,105.82 228.22,98.71 231.21,95.64
             232.53,94.29 238.48,89.43 240.04,88.85
             243.09,87.72 252.32,88.00 256.00,88.00
             256.00,88.00 286.00,88.00 286.00,88.00
             288.95,88.01 292.27,87.71 294.76,89.58
             301.57,94.69 296.81,108.88 293.00,112.00
             293.00,112.00 292.00,114.00 292.00,114.00 Z
           M 233.00,95.00
           C 233.00,95.00 232.00,95.00 232.00,95.00
             232.00,95.00 233.00,96.00 233.00,96.00
             233.00,96.00 233.00,95.00 233.00,95.00 Z
           M 52.00,96.40
           C 43.61,99.17 42.00,107.78 52.00,106.82
             61.08,105.95 63.71,95.09 52.00,96.40 Z
           M 250.00,125.75
           C 252.30,125.91 254.81,126.43 256.99,125.75
             262.83,123.04 264.73,114.62 266.85,109.17
             268.06,106.05 270.26,100.41 267.40,97.60
             264.32,94.57 258.88,97.52 256.65,100.21
             254.39,102.93 249.80,116.32 249.36,120.00
             249.07,122.43 249.46,123.70 250.00,125.75 Z
           M 248.00,120.00
           C 248.00,120.00 247.00,120.00 247.00,120.00
             247.00,120.00 248.00,121.00 248.00,121.00
             248.00,121.00 248.00,120.00 248.00,120.00 Z
           M 89.00,130.00
           C 89.00,130.00 88.00,130.00 88.00,130.00
             88.00,130.00 89.00,131.00 89.00,131.00
             89.00,131.00 89.00,130.00 89.00,130.00 Z
           M 148.00,130.00
           C 148.00,130.00 147.00,130.00 147.00,130.00
             147.00,130.00 148.00,131.00 148.00,131.00
             148.00,131.00 148.00,130.00 148.00,130.00 Z" />
  <path id="Secondary"
        fill="#FF511C" stroke="black" stroke-width="0"
        d="M 311.00,91.00
           C 316.22,89.78 314.17,88.11 322.00,88.00
             322.00,88.00 361.00,88.00 361.00,88.00
             365.26,88.04 369.93,87.09 371.00,92.00
             374.51,94.28 373.89,97.09 374.00,101.00
             367.69,99.47 352.31,99.47 346.00,101.00
             340.82,94.61 339.87,97.19 333.00,97.00
             333.00,97.00 330.00,100.00 330.00,100.00
             330.00,100.00 330.00,107.00 330.00,107.00
             337.61,105.15 363.00,105.57 371.00,107.00
             371.00,107.00 365.46,123.91 365.46,123.91
             365.46,123.91 361.00,130.00 361.00,130.00
             361.00,130.00 359.00,129.00 359.00,129.00
             355.29,135.18 348.46,134.99 342.00,134.79
             342.00,134.79 310.00,134.79 310.00,134.79
             308.02,134.31 302.68,133.90 301.24,133.28
             297.74,131.78 293.79,123.83 298.31,121.60
             300.31,120.61 312.94,120.99 316.00,121.00
             327.75,121.02 323.09,123.47 334.00,127.00
             334.00,127.00 333.00,125.00 333.00,125.00
             338.60,124.00 339.48,118.64 341.00,114.00
             341.00,114.00 309.00,114.00 309.00,114.00
             306.82,113.98 303.26,114.20 301.68,112.40
             300.13,110.61 301.06,107.98 301.68,106.00
             304.61,96.67 305.43,97.80 311.00,91.00 Z
           M 383.00,88.00
           C 383.00,88.00 411.00,88.00 411.00,88.00
             409.52,92.27 407.29,101.33 404.00,104.00
             404.00,104.00 400.00,121.00 400.00,121.00
             400.00,121.00 398.00,122.00 398.00,122.00
             398.00,122.00 398.00,123.00 398.00,123.00
             399.50,123.76 402.85,125.74 404.27,125.96
             409.93,126.85 412.77,121.39 414.33,117.00
             414.33,117.00 420.70,98.01 420.70,98.01
             421.34,96.31 423.57,90.82 424.78,89.70
             426.99,87.65 431.16,88.00 434.00,88.00
             434.00,88.00 453.00,88.00 453.00,88.00
             453.00,88.00 444.00,116.00 444.00,116.00
             444.00,116.00 442.00,116.00 442.00,116.00
             442.19,125.19 437.80,125.98 433.00,132.00
             433.00,132.00 425.00,134.45 425.00,134.45
             416.36,135.90 408.70,133.76 402.00,134.45
             396.20,134.37 393.34,135.39 387.00,134.45
             381.28,134.12 374.47,136.34 373.00,129.00
             370.27,126.80 370.52,125.32 371.39,122.00
             372.53,117.61 377.88,101.36 381.00,99.00
             381.00,99.00 380.00,96.00 380.00,96.00
             380.00,96.00 383.00,88.00 383.00,88.00 Z
           M 458.00,88.00
           C 458.00,88.00 501.00,88.00 501.00,88.00
             501.00,88.00 522.00,88.00 522.00,88.00
             526.87,102.15 520.92,105.40 519.06,112.00
             519.06,112.00 517.39,120.00 517.39,120.00
             515.68,124.84 511.13,130.95 506.00,132.00
             506.00,132.00 504.46,133.46 504.46,133.46
             504.46,133.46 489.00,134.90 489.00,134.90
             489.00,134.90 471.00,134.00 471.00,134.00
             471.00,134.00 459.00,134.96 459.00,134.96
             459.00,134.96 443.00,134.96 443.00,134.96
             443.00,134.96 458.00,88.00 458.00,88.00 Z
           M 531.00,101.00
           C 530.77,97.51 531.56,91.20 534.65,88.99
             536.72,87.51 544.23,88.00 547.00,88.00
             556.77,88.00 569.27,84.69 568.00,99.00
             568.00,99.00 570.00,103.00 570.00,103.00
             570.00,103.00 578.00,99.00 578.00,99.00
             578.56,94.76 583.26,89.65 587.42,88.23
             587.42,88.23 618.00,88.23 618.00,88.23
             617.53,92.55 615.68,101.18 612.00,104.00
             612.37,110.54 607.94,119.66 605.73,126.04
             604.83,128.62 603.65,132.39 601.15,133.97
             599.25,134.92 596.15,134.19 594.00,133.97
             594.00,133.97 578.00,133.97 578.00,133.97
             578.00,133.97 582.00,120.00 582.00,120.00
             582.00,120.00 565.72,134.22 565.72,134.22
             565.72,134.22 553.00,134.22 553.00,134.22
             553.00,134.22 550.00,121.00 550.00,121.00
             550.00,121.00 544.00,135.00 544.00,135.00
             544.00,135.00 518.00,135.00 518.00,135.00
             518.00,135.00 526.16,111.13 526.16,111.13
             527.45,107.34 527.78,103.47 531.00,101.00 Z
           M 624.00,89.00
           C 629.99,87.54 645.14,87.33 651.00,89.00
             651.00,89.00 647.00,96.00 647.00,96.00
             647.56,100.31 646.59,105.25 643.00,108.00
             643.00,108.00 635.00,135.00 635.00,135.00
             635.00,135.00 626.00,134.09 626.00,134.09
             619.40,134.18 617.07,136.29 609.00,134.09
             611.70,128.05 613.24,115.64 618.00,112.00
             617.90,107.08 621.16,94.94 625.00,92.00
             625.00,92.00 624.00,89.00 624.00,89.00 Z
           M 657.00,88.00
           C 657.00,88.00 691.00,88.00 691.00,88.00
             691.00,88.00 711.00,89.00 711.00,89.00
             711.00,89.00 705.70,99.98 705.70,99.98
             705.70,99.98 693.84,103.31 693.84,103.31
             693.84,103.31 686.00,120.00 686.00,120.00
             686.00,120.00 685.00,122.00 685.00,122.00
             685.57,127.62 684.32,129.99 682.00,135.00
             682.00,135.00 666.01,134.04 666.01,134.04
             666.01,134.04 654.00,134.04 654.00,134.04
             654.00,134.04 666.00,102.00 666.00,102.00
             666.00,102.00 653.00,101.00 653.00,101.00
             653.00,101.00 657.00,88.00 657.00,88.00 Z
           M 371.00,90.00
           C 371.00,90.00 370.00,90.00 370.00,90.00
             370.00,90.00 371.00,91.00 371.00,91.00
             371.00,91.00 371.00,90.00 371.00,90.00 Z
           M 424.00,95.00
           C 424.00,95.00 423.00,95.00 423.00,95.00
             423.00,95.00 424.00,96.00 424.00,96.00
             424.00,96.00 424.00,95.00 424.00,95.00 Z
           M 568.00,96.00
           C 568.00,96.00 567.00,96.00 567.00,96.00
             567.00,96.00 568.00,97.00 568.00,97.00
             568.00,97.00 568.00,96.00 568.00,96.00 Z
           M 494.00,98.00
           C 485.96,98.57 483.00,95.05 481.00,108.00
             481.00,108.00 491.00,109.00 491.00,109.00
             491.00,109.00 494.00,106.00 494.00,106.00
             494.00,106.00 494.00,98.00 494.00,98.00 Z
           M 306.00,98.00
           C 306.00,98.00 305.00,98.00 305.00,98.00
             305.00,98.00 306.00,99.00 306.00,99.00
             306.00,99.00 306.00,98.00 306.00,98.00 Z
           M 667.00,103.00
           C 667.00,103.00 666.00,103.00 666.00,103.00
             666.00,103.00 667.00,104.00 667.00,104.00
             667.00,104.00 667.00,103.00 667.00,103.00 Z
           M 419.00,111.00
           C 419.00,111.00 418.00,111.00 418.00,111.00
             418.00,111.00 419.00,112.00 419.00,112.00
             419.00,112.00 419.00,111.00 419.00,111.00 Z
           M 490.00,115.00
           C 490.00,115.00 479.00,112.00 479.00,112.00
             479.00,112.00 475.00,122.00 475.00,122.00
             480.73,123.63 483.56,123.30 489.00,121.00
             489.00,121.00 490.00,119.00 490.00,119.00
             490.00,119.00 490.00,115.00 490.00,115.00 Z
           M 513.00,120.00
           C 513.00,120.00 512.00,120.00 512.00,120.00
             512.00,120.00 513.00,121.00 513.00,121.00
             513.00,121.00 513.00,120.00 513.00,120.00 Z
           M 576.00,121.00
           C 576.00,121.00 575.00,121.00 575.00,121.00
             575.00,121.00 576.00,122.00 576.00,122.00
             576.00,122.00 576.00,121.00 576.00,121.00 Z
           M 487.00,123.00
           C 487.00,123.00 486.00,123.00 486.00,123.00
             486.00,123.00 487.00,124.00 487.00,124.00
             487.00,124.00 487.00,123.00 487.00,123.00 Z
           M 476.00,124.00
           C 476.00,124.00 475.00,124.00 475.00,124.00
             475.00,124.00 476.00,125.00 476.00,125.00
             476.00,125.00 476.00,124.00 476.00,124.00 Z
           M 327.00,125.00
           C 327.00,125.00 326.00,125.00 326.00,125.00
             326.00,125.00 327.00,126.00 327.00,126.00
             327.00,126.00 327.00,125.00 327.00,125.00 Z
           M 364.00,125.00
           C 364.00,125.00 363.00,125.00 363.00,125.00
             363.00,125.00 364.00,126.00 364.00,126.00
             364.00,126.00 364.00,125.00 364.00,125.00 Z
           M 301.00,130.00
           C 301.00,130.00 300.00,130.00 300.00,130.00
             300.00,130.00 301.00,131.00 301.00,131.00
             301.00,131.00 301.00,130.00 301.00,130.00 Z" />

</svg>
