<svg version="1.1" id="Layer_1" xmlns="http://www.w3.org/2000/svg" xmlns:xlink="http://www.w3.org/1999/xlink" x="0" y="0" viewBox="0 0 679.1 159.5" width="679.1" height="159.5" xml:space="preserve"><title>Copernicus | Europe's eyes on Earth</title><style>.st24{fill:#28639a}</style><g id="Layer_1"><g id="g4154"><path id="rect4122" d="M0 0h233v158H0V0z" fill="#fff"></path><g id="g4152"><path id="rect4124" d="M4.5 4H229v149.7H4.5V4z" fill="#243f9c"></path><path id="polygon4148" d="M176.7 76.7l-4.3 3.2 1.2 6.3-4.9-3.6-4.9 3.5 1.2-6.2-4.2-3.2h6l1.9-5.8 2 5.8h6zM64.9 79.9l-4.2-3.2h5.9l2-5.8 1.9 5.8h6l-4.2 3.2 1.2 6.3-4.9-3.6-4.9 3.5 1.2-6.2zm105.4 22.2l-4.3 3.3 1.2 6.2-4.9-3.5-4.9 3.4 1.2-6.1-4.2-3.3h6l1.9-5.8 2 5.9 6-.1zm-99.6 3.3l-4.2-3.3h6l1.9-5.8 2 5.9 5.9-.1-4.2 3.3 1.2 6.2-4.9-3.5-4.9 3.4 1.2-6.1zm99.6-53.8l-4.3 3.2 1.2 6.3-4.9-3.6-4.9 3.5 1.2-6.2-4.2-3.2h6l1.9-5.8 2 5.8h6zm-99.6 3.2l-4.2-3.2h6l1.9-5.8 2 5.8h5.9l-4.2 3.2 1.2 6.3-4.9-3.6-4.9 3.5 1.2-6.2zm30.3 65.6l-4.2 3.2 1.1 6.3-4.8-3.6-4.9 3.5 1.1-6.2-4.2-3.2h6l2-5.8 1.9 5.8h6zm38.3 3.2l-4.2-3.2h6l1.9-5.8 2 5.8h6l-4.3 3.2 1.2 6.3-4.9-3.6-4.9 3.5 1.2-6.2zM101 32.5l-4.2 3.2 1.1 6.3-4.8-3.6-4.9 3.5 1.1-6.2-4.2-3.2h6l2-5.8 1.9 5.8h6zm38.3 3.2l-4.2-3.2h6l1.9-5.8 2 5.8h6l-4.3 3.2 1.2 6.3-4.9-3.6-4.9 3.5 1.2-6.2zM126.6 26l-4.3 3.2 1.2 6.3-4.9-3.6-4.9 3.5 1.2-6.2-4.2-3.2h6l1.9-5.8 2 5.8h6zm-11.7 104.5l-4.2-3.3h6l1.9-5.8 2 5.8h6l-4.3 3.3 1.2 6.2-4.9-3.5-4.9 3.4 1.2-6.1z" fill="#fcec00"></path></g></g></g><g id="Layer_3"><defs><path id="SVGID_1_" d="M249 76.8c0 40.9 32.8 74 73.3 74 11.2 0 22.3-2.6 32.4-7.7 0 0 .2-.1.1-.3 0-.1-.1-.1-.2-.1-7.7 3.1-15.9 4.7-24.2 4.6-36.8 0-66.7-30.3-66.7-67.6s29.9-67.6 66.7-67.6c25.4 0 48.6 14.5 59.7 37.3 0 0 .1.2.3.1.1 0 .1-.1.1-.2-11-28.1-38-46.5-68.1-46.6C281.8 2.8 249 36 249 76.8"></path></defs><clipPath id="SVGID_2_"><use xlink:href="#SVGID_1_" overflow="visible"></use></clipPath><g id="Group_438" clip-path="url(#SVGID_2_)"><linearGradient id="Rectangle_74_1_" gradientUnits="userSpaceOnUse" x1="-169.738" y1="463.053" x2="-169.734" y2="463.053" gradientTransform="matrix(186.5 0 0 -195.09 31906 90413.852)"><stop offset="0" stop-color="#236797"></stop><stop offset="1" stop-color="#6aaadc"></stop></linearGradient><path id="Rectangle_74" fill="url(#Rectangle_74_1_)" d="M249 2.8h141.5v148H249z"></path></g><path id="Path_353" d="M529.9 91.2c-1.3-3.3-3.9-5.9-7.1-7.4-1.6-.7-3.3-1.1-5.1-1.1-1.8 0-3.6.4-5.2 1.2-1.6.7-3 1.8-4.2 3-.6.7-1.2 1.4-1.7 2.1v.3c0 9.1 7.4 16.5 16.5 16.5 2.7 0 5.4-.7 7.8-2v-7.5c0-1.6-.3-3.4-1-5.1" fill="#ffcb2b"></path><defs><path id="SVGID_3_" d="M331.6 117.7c-2.1-.9-4.1-2.2-5.7-3.9-1.7-1.7-3-3.7-3.9-5.8-.9-2.2-1.4-4.6-1.4-7.1 0-2.4.5-4.9 1.4-7.1.9-2.2 2.2-4.2 3.9-5.8 5.1-5.2 12.8-6.8 19.5-3.9 2.1.9 4.1 2.2 5.7 3.9 5.1 5.4 6.5 13.2 3.8 20-.9 2.2-2.2 4.1-3.8 5.8-1.6 1.6-3.6 3-5.7 3.9-2.2 1-4.5 1.5-6.9 1.4-2.4 0-4.7-.5-6.9-1.4m-2.4-39.4c-2.8 1.2-5.4 3-7.6 5.2-6.9 7.1-9 17.7-5.2 26.9 1.2 2.9 3 5.5 5.2 7.8 2.2 2.2 4.7 4 7.6 5.2 5.9 2.5 12.6 2.5 18.6 0 2.8-1.2 5.4-3 7.6-5.2 2.2-2.2 4-4.9 5.2-7.8 2.5-6.1 2.5-12.9 0-19-1.2-2.9-3-5.6-5.2-7.8s-4.7-4-7.6-5.2c-6-2.6-12.7-2.6-18.6-.1"></path></defs><clipPath id="SVGID_4_"><use xlink:href="#SVGID_3_" overflow="visible"></use></clipPath><g id="Group_439" clip-path="url(#SVGID_4_)"><linearGradient id="Rectangle_75_1_" gradientUnits="userSpaceOnUse" x1="-166.653" y1="460.247" x2="-166.641" y2="460.247" gradientTransform="matrix(63 0 0 -64.56 10750.5 29814.398)"><stop offset="0" stop-color="#0e294d"></stop><stop offset="1" stop-color="#204f9c"></stop></linearGradient><path id="Rectangle_75" fill="url(#Rectangle_75_1_)" d="M314.6 76.4h47.8v49h-47.8z"></path></g><defs><path id="SVGID_5_" d="M383.7 117.8c-6.7-2.9-11-9.5-10.9-16.8 0-2.4.5-4.9 1.4-7.1 1.8-4.3 5.3-7.8 9.6-9.7 2.2-1 4.5-1.5 6.9-1.4 2.4 0 4.7.5 6.9 1.4 2.1.9 4.1 2.3 5.7 3.9 1.6 1.7 2.9 3.6 3.8 5.8.9 2.3 1.4 4.7 1.4 7.1 0 2.4-.4 4.8-1.4 7.1-.9 2.2-2.2 4.1-3.8 5.8-1.6 1.6-3.6 3-5.7 3.9-2.2.9-4.5 1.4-6.9 1.4-2.5 0-4.8-.5-7-1.4m-2.4-39.4c-2.8 1.2-5.4 3-7.6 5.2-2.2 2.3-3.9 4.9-5.2 7.8-1.2 3-1.8 6.3-1.8 9.6v40.1h6.1V116c1.9 2.9 4.5 5.3 7.7 6.8 3.1 1.7 6.6 2.7 10.2 2.7 3.2 0 6.3-.7 9.3-2 2.8-1.2 5.4-3 7.6-5.2 2.2-2.2 4-4.9 5.2-7.8 2.5-6.1 2.5-12.9 0-19-1.2-2.9-3-5.6-5.2-7.8s-4.7-4-7.6-5.2c-6.1-2.7-12.8-2.7-18.7-.1"></path></defs><clipPath id="SVGID_6_"><use xlink:href="#SVGID_5_" overflow="visible"></use></clipPath><g id="Group_440" clip-path="url(#SVGID_6_)"><linearGradient id="Rectangle_76_1_" gradientUnits="userSpaceOnUse" x1="-167.752" y1="461.308" x2="-167.74" y2="461.308" gradientTransform="matrix(63 0 0 -85.25 10819.2 39435.352)"><stop offset="0" stop-color="#0e294d"></stop><stop offset="1" stop-color="#204f9c"></stop></linearGradient><path id="Rectangle_76" fill="url(#Rectangle_76_1_)" d="M366.7 76.5h47.8v64.7h-47.8z"></path></g><defs><path id="SVGID_7_" d="M429.4 87.9c6.8-7 18-7 25-.2l.2.2c1.3 1.4 2.5 3.1 3.3 4.9H426c.9-1.8 2.1-3.4 3.4-4.9m3.4-9.6c-2.9 1.2-5.5 3-7.7 5.2-2.2 2.3-3.9 4.9-5.1 7.8-2.5 6.1-2.5 12.9 0 19 1.2 2.9 2.9 5.5 5.1 7.8 2.2 2.2 4.8 4 7.7 5.2 5.9 2.5 12.6 2.5 18.6 0 2.8-1.3 5.4-3 7.6-5.2 2.2-2.3 3.9-4.9 5.1-7.8l.2-.7h-6.7c-.8 1.5-1.8 2.9-3 4.1-6.8 7-18 7-25 .2l-.2-.2c-1.6-1.7-2.9-3.7-3.8-5.8-1.3-2.8-1.7-5.9-1.3-9h41.5c-.1-2.6-.8-5.2-1.8-7.7-1.2-2.9-2.9-5.6-5.1-7.8-2.2-2.2-4.8-4-7.6-5.2-5.9-2.4-12.6-2.4-18.5.1"></path></defs><clipPath id="SVGID_8_"><use xlink:href="#SVGID_7_" overflow="visible"></use></clipPath><g id="Group_441" clip-path="url(#SVGID_8_)"><linearGradient id="Rectangle_77_1_" gradientUnits="userSpaceOnUse" x1="-168.815" y1="460.247" x2="-168.803" y2="460.247" gradientTransform="matrix(62.9 0 0 -64.56 10869.8 29814.398)"><stop offset="0" stop-color="#0e294d"></stop><stop offset="1" stop-color="#204f9c"></stop></linearGradient><path id="Rectangle_77" fill="url(#Rectangle_77_1_)" d="M418.1 76.4h47.7v49h-47.7z"></path></g><defs><path id="SVGID_9_" d="M485 80.4c-2.9 1.3-5.5 3.1-7.7 5.3-.4.4-.7.9-.9 1.4v-8.5h-6v44.5h6V103c0-2.4.5-4.9 1.4-7.1.9-2.2 2.2-4.1 3.9-5.8 1.6-1.7 3.5-3 5.7-3.9 2.2-1 4.5-1.5 6.9-1.4v-6.2c-3.3-.1-6.5.5-9.3 1.8"></path></defs><clipPath id="SVGID_10_"><use xlink:href="#SVGID_9_" overflow="visible"></use></clipPath><g id="Group_442" clip-path="url(#SVGID_10_)"><linearGradient id="Rectangle_78_1_" gradientUnits="userSpaceOnUse" x1="-167.82" y1="459.84" x2="-167.796" y2="459.84" gradientTransform="matrix(31.5 0 0 -58.93 5537.9 27199.25)"><stop offset="0" stop-color="#0e294d"></stop><stop offset="1" stop-color="#204f9c"></stop></linearGradient><path id="Rectangle_78" fill="url(#Rectangle_78_1_)" d="M470.4 78.5h23.9v44.7h-23.9z"></path></g><defs><path id="SVGID_11_" d="M513.6 76.9c-1.3.3-2.6.7-3.8 1.3-1.2.5-2.3 1.2-3.3 2-.9.7-1.7 1.6-2.4 2.6v-4.1H498v44.5h6.1V96.5c0-1.8.4-3.5 1.1-5.1.7-1.6 1.7-3.1 2.9-4.4 1.2-1.3 2.7-2.3 4.2-3 1.6-.8 3.4-1.2 5.2-1.2 1.7 0 3.5.4 5.1 1.1 5 2.2 8.2 7.2 8.2 12.7v26.7h6.3l-.2-26.7c0-2.7-.5-5.3-1.5-7.8-1-2.4-2.5-4.5-4.2-6.4-1.8-1.8-3.9-3.3-6.2-4.3-2.4-1.1-4.9-1.6-7.5-1.6-1.2-.1-2.5 0-3.9.4"></path></defs><clipPath id="SVGID_12_"><use xlink:href="#SVGID_11_" overflow="visible"></use></clipPath><g id="Group_443" clip-path="url(#SVGID_12_)"><linearGradient id="Rectangle_79_1_" gradientUnits="userSpaceOnUse" x1="-170.156" y1="460.047" x2="-170.141" y2="460.047" gradientTransform="matrix(51.5 0 0 -61.74 9014.5 28503.102)"><stop offset="0" stop-color="#0e294d"></stop><stop offset="1" stop-color="#204f9c"></stop></linearGradient><path id="Rectangle_79" fill="url(#Rectangle_79_1_)" d="M498.2 76.4h39.1v46.8h-39.1z"></path></g><defs><path id="SVGID_13_" d="M543.4 123.2h6.1V78.7h-6.1v44.5zM544 62c-1.5 1.4-1.5 3.8-.1 5.3.7.7 1.7 1.1 2.7 1.1 1 0 1.9-.4 2.6-1.1 1.4-1.5 1.4-3.8 0-5.3-.7-.7-1.6-1.1-2.6-1.1s-1.9.4-2.6 1.1"></path></defs><clipPath id="SVGID_14_"><use xlink:href="#SVGID_13_" overflow="visible"></use></clipPath><g id="Group_444" clip-path="url(#SVGID_14_)"><linearGradient id="Rectangle_80_1_" gradientUnits="userSpaceOnUse" x1="-168.317" y1="461.124" x2="-168.238" y2="461.124" gradientTransform="matrix(9.6 0 0 -82.17 1866.7 37982.648)"><stop offset="0" stop-color="#0e294d"></stop><stop offset="1" stop-color="#204f9c"></stop></linearGradient><path id="Rectangle_80" fill="url(#Rectangle_80_1_)" d="M542.9 60.9h7.3v62.3h-7.3z"></path></g><defs><path id="SVGID_15_" d="M568.9 78.3c-2.8 1.3-5.4 3-7.6 5.2-6.9 7.1-9 17.7-5.2 26.9 1.2 2.9 3 5.5 5.2 7.8 2.2 2.2 4.8 4 7.6 5.2 12 5.1 25.9-.4 31-12.4l.3-.6.3-.7h-6.7c-.8 1.5-1.8 2.9-3 4.1-1.6 1.6-3.6 3-5.7 3.9-2.2 1-4.5 1.5-6.9 1.4-7.2-.1-13.7-4.5-16.5-11.1-.9-2.2-1.4-4.6-1.4-7.1 0-2.4.5-4.9 1.4-7.1.9-2.2 2.2-4.2 3.9-5.8 5.1-5.2 12.8-6.8 19.5-3.9 2.1.9 4.1 2.2 5.7 3.9 1.1 1.2 2.1 2.6 2.9 4h6.8l-.3-.6c-4.8-12.1-18.5-18.1-30.6-13.3-.2 0-.5.1-.7.2"></path></defs><clipPath id="SVGID_16_"><use xlink:href="#SVGID_15_" overflow="visible"></use></clipPath><g id="Group_445" clip-path="url(#SVGID_16_)"><linearGradient id="Rectangle_81_1_" gradientUnits="userSpaceOnUse" x1="-171.659" y1="460.247" x2="-171.646" y2="460.247" gradientTransform="matrix(60.8 0 0 -64.56 10688.2 29814.398)"><stop offset="0" stop-color="#0e294d"></stop><stop offset="1" stop-color="#204f9c"></stop></linearGradient><path id="Rectangle_81" fill="url(#Rectangle_81_1_)" d="M554.4 76.4h46.1v49h-46.1z"></path></g><defs><path id="SVGID_17_" d="M637.1 78.7v24.5c0 1.8-.4 3.6-1.1 5.3-.7 1.6-1.6 3.1-2.9 4.3-1.2 1.2-2.7 2.2-4.2 3-3.3 1.4-7.1 1.4-10.4 0-1.6-.7-3-1.7-4.2-3-1.3-1.2-2.2-2.7-2.9-4.3-.7-1.7-1.1-3.5-1.1-5.3V78.7H604v24.4c0 2.7.5 5.3 1.6 7.7 1 2.4 2.4 4.5 4.2 6.4 1.8 1.8 3.9 3.3 6.2 4.3 2.4 1.1 4.9 1.6 7.5 1.6 2.6 0 5.2-.5 7.6-1.6 2.3-1 4.4-2.5 6.2-4.3 1.8-1.9 3.2-4 4.2-6.4 1-2.5 1.5-5.1 1.5-7.7V78.7h-5.9z"></path></defs><clipPath id="SVGID_18_"><use xlink:href="#SVGID_17_" overflow="visible"></use></clipPath><g id="Group_446" clip-path="url(#SVGID_18_)"><linearGradient id="Rectangle_82_1_" gradientUnits="userSpaceOnUse" x1="-172.864" y1="459.821" x2="-172.85" y2="459.821" gradientTransform="matrix(51.5 0 0 -58.69 9154.1 27087.85)"><stop offset="0" stop-color="#0e294d"></stop><stop offset="1" stop-color="#204f9c"></stop></linearGradient><path id="Rectangle_82" fill="url(#Rectangle_82_1_)" d="M604.1 78.7h39.1v44.5h-39.1z"></path></g><defs><path id="SVGID_19_" d="M657.7 77.6c-1.8.7-3.5 1.8-4.9 3.1-1.4 1.2-2.4 2.7-3.2 4.4-.8 1.7-1 3.6-.8 5.4.2 2.3 1.1 4.4 2.5 6.2 1.3 1.6 3 2.9 4.9 3.7 2 .9 4.1 1.6 6.3 2.1 1.9.5 3.8 1.2 5.6 2 1.4.6 2.5 1.5 3.4 2.7.8 1.1 1.1 2.7 1.1 4.7-.1 1.9-1 3.7-2.4 5.1-1.4 1.4-3.5 2-6.4 2-2.2.1-4.3-.4-6.2-1.5-1.4-.9-2.5-2.1-3.3-3.6-.6-1.3-.9-2.8-.9-4.2h-6.1c-.1 2.3.4 4.5 1.3 6.6.9 1.8 2.1 3.5 3.6 4.9 1.5 1.3 3.3 2.4 5.2 3.1 1.9.7 3.9 1 6 1.1 2 0 4-.3 5.9-.8 1.8-.6 3.4-1.5 4.9-2.6 1.4-1.1 2.6-2.6 3.4-4.2.9-1.7 1.3-3.7 1.2-5.6.1-2.4-.4-4.8-1.5-6.9-1.1-1.9-2.6-3.5-4.4-4.6-1.9-1.2-3.9-2.2-6.1-2.9l-5.8-2c-1.5-.5-2.9-1.2-4.2-2.1-1.1-.8-1.8-2-2-3.3-.3-1.6.2-3.3 1.2-4.6 1-1.3 2.2-2.3 3.7-2.9 1.2-.4 2.4-.7 3.7-.7 1.7 0 3.3.5 4.8 1.4 1.4.9 2.5 2.3 3 3.9h6.5c-.2-1.1-.6-2.2-1.1-3.2-.8-1.3-1.7-2.6-2.7-3.7-1.2-1.3-2.7-2.3-4.3-3-1.9-.8-4-1.2-6.1-1.1-2-.1-4 .3-5.8 1.1"></path></defs><clipPath id="SVGID_20_"><use xlink:href="#SVGID_19_" overflow="visible"></use></clipPath><g id="Group_447" clip-path="url(#SVGID_20_)"><linearGradient id="Rectangle_83_1_" gradientUnits="userSpaceOnUse" x1="-174.445" y1="460.247" x2="-174.427" y2="460.247" gradientTransform="matrix(41.7 0 0 -64.56 7525.7 29814.398)"><stop offset="0" stop-color="#0e294d"></stop><stop offset="1" stop-color="#204f9c"></stop></linearGradient><path id="Rectangle_83" fill="url(#Rectangle_83_1_)" d="M647.4 76.4H679v49h-31.6z"></path></g><path id="Path_363" class="st24" d="M438.6 144.9h-7.1v6.7h8v2h-10.4v-18.4h9.9v2h-7.5v5.8h7.1v1.9z"></path><path id="Path_364" class="st24" d="M453.3 149.9c0 1.4 0 2.6.1 3.6h-2.1l-.2-2.2c-.9 1.6-2.6 2.5-4.4 2.5-2 0-4.6-1.2-4.6-5.8v-7.7h2.4v7.3c0 2.5.8 4.2 2.9 4.2 1.4 0 2.7-.9 3.2-2.3.2-.4.2-.8.2-1.2v-8h2.4l.1 9.6z"></path><path id="Path_365" class="st24" d="M457.3 144.4c0-1.6 0-2.9-.1-4.1h2.1v2.6h.1c.5-1.7 2-2.8 3.7-2.9h.6v2.3h-.7c-1.7 0-3 1.2-3.3 3-.1.4-.1.8-.1 1.1v7.1h-2.4l.1-9.1z"></path><path id="Path_366" class="st24" d="M477.9 146.8c0 4.9-3.4 7.1-6.6 7.1s-6.3-2.7-6.3-6.8c0-4.2 2.9-7 6.5-7 3.7-.1 6.4 2.7 6.4 6.7zm-10.5.1c0 2.9 1.7 5.1 4 5.1s4-2.1 4-5.2-1.1-5-4-5-4 2.6-4 5.1z"></path><path id="Path_367" class="st24" d="M480.9 144.7c0-1.7-.1-3.1-.1-4.3h2.1v2.3h.1c1-1.7 2.8-2.7 4.7-2.6 3.3 0 5.6 2.7 5.6 6.7s-2.9 7.1-6 7.1c-1.6.1-3.2-.7-4.1-2.1h-.1v7.2h-2.4l.2-14.3zm2.4 3.5c0 .3.1.7.2 1 .4 1.6 1.9 2.8 3.6 2.8 2.6 0 4-2 4-5.1s-1.4-4.9-3.9-4.9c-1.7.1-3.2 1.3-3.6 3-.1.3-.1.7-.2 1v2.2z"></path><path id="Path_368" class="st24" d="M497.9 147.4c0 3.2 2 4.6 4.5 4.6 1.2 0 2.5-.2 3.6-.7l.5 1.7c-1.4.6-2.9.9-4.4.8-4.1 0-6.5-2.7-6.5-6.7s2.4-7.1 6.2-7.1 5.5 3.8 5.5 6.2c0 .4 0 .8-.1 1.1l-9.3.1zm6.9-1.8c.1-1.5-.6-3.9-3.3-3.9-2.7 0-3.5 2.2-3.6 3.9h6.9z"></path><path id="Path_369" class="st24" d="M512.5 134.7c-.6 2.2-1.5 4.4-2.6 6.4l-1.5.2c.7-2.1 1.2-4.3 1.6-6.4l2.5-.2z"></path><path id="Path_370" class="st24" d="M512.9 151.1c1 .6 2.1.9 3.2.9 1.7 0 2.5-.8 2.5-2 0-1.1-.7-1.7-2.4-2.4s-3.5-2.1-3.5-3.7 1.7-3.9 4.6-3.9c1.1 0 2.2.3 3.2.8l-.5 1.7c-.8-.5-1.8-.8-2.7-.8-1.4 0-2.2.8-2.2 1.8s.8 1.6 2.5 2.3c1.7.7 3.5 2 3.5 3.9s-1.8 4-4.9 4c-1.3 0-2.6-.3-3.7-.9l.4-1.7z"></path><path id="Path_371" class="st24" d="M531.1 147.4c.1 3.2 2.1 4.6 4.6 4.6 1.2 0 2.5-.2 3.6-.7l.5 1.7c-1.4.6-2.9.9-4.4.8-4.1 0-6.5-2.7-6.5-6.7s2.4-7.1 6.2-7.1c3.9 0 5.5 3.8 5.5 6.2 0 .5-.1.8-.1 1.1l-9.4.1zm7-1.8c.1-1.5-.6-3.9-3.3-3.9s-3.5 2.2-3.6 3.9h6.9z"></path><path id="Path_372" class="st24" d="M544.4 140.3l2.8 7.8c.4.9.7 1.8.9 2.7h.1c.2-.9.5-1.8.8-2.7l2.6-7.7h2.6l-3.6 9.4c-1.7 4.6-2.9 6.8-4.5 8.3-.8.7-1.9 1.3-3 1.5l-.6-2c.8-.3 1.4-.7 2-1.2.9-.7 1.6-1.6 2-2.7.1-.2.2-.4.2-.6 0-.2-.1-.4-.2-.6l-4.9-12.1 2.8-.1z"></path><path id="Path_373" class="st24" d="M557.4 147.4c0 3.2 2 4.6 4.5 4.6 1.3 0 2.5-.2 3.7-.7l.4 1.7c-1.4.6-2.9.9-4.4.8-4.1 0-6.5-2.7-6.5-6.7s2.4-7.1 6.2-7.1 5.5 3.8 5.5 6.2c0 .4 0 .8-.1 1.1l-9.3.1zm7.1-1.8c0-1.5-.7-3.9-3.3-3.9-2.7 0-3.5 2.2-3.7 3.9h7z"></path><path id="Path_374" class="st24" d="M569.4 151.1c1 .6 2.1.9 3.2.9 1.7 0 2.6-.8 2.6-2 0-1.1-.7-1.7-2.4-2.4s-3.6-2.1-3.6-3.7 1.7-3.9 4.6-3.9c1.1 0 2.3.3 3.3.8l-.6 1.7c-.8-.5-1.7-.8-2.7-.8-1.4 0-2.2.8-2.2 1.8s.8 1.6 2.5 2.3c1.7.7 3.4 2 3.4 3.9s-1.8 4-4.9 4c-1.3 0-2.6-.3-3.7-.9l.5-1.7z"></path><path id="Path_375" class="st24" d="M598.3 146.8c0 4.9-3.4 7.1-6.6 7.1-3.2 0-6.3-2.7-6.3-6.8 0-4.2 2.9-7 6.5-7s6.4 2.7 6.4 6.7zm-10.5.1c0 2.9 1.7 5.1 4 5.1s4-2.1 4-5.2-1.1-5-4-5c-2.8.1-4 2.6-4 5.1z"></path><path id="Path_376" class="st24" d="M601.3 143.9c0-1.2 0-2.4-.2-3.6h2.2v2.1h.1c.9-1.5 2.6-2.5 4.4-2.4 1.8 0 4.6 1.1 4.6 5.6v7.9H610v-7.7c0-2.1-.8-3.9-3.1-3.9-1.5 0-2.8 1-3.2 2.4-.1.4-.2.8-.2 1.1v8h-2.4l.2-9.5z"></path><path id="Path_377" class="st24" d="M631.8 144.9h-7.1v6.7h8v2h-10.4v-18.4h9.9v2h-7.6v5.8h7.1v1.9z"></path><path id="Path_378" class="st24" d="M645 150.4c0 1.1 0 2.1.2 3.2H643l-.2-1.7h-.1c-.9 1.3-2.4 2-4 2-2.7 0-4.1-1.9-4.1-3.8 0-3.2 2.9-4.9 8-4.9v-.3c0-1.1-.3-3-3-3-1.2 0-2.4.3-3.5 1l-.5-1.6c1.3-.8 2.8-1.2 4.3-1.1 4.1 0 5.1 2.7 5.1 5.4v4.8zm-2.3-3.6c-2.7-.1-5.6.4-5.6 3-.1 1.2.8 2.2 2 2.3h.3c1.4.1 2.7-.8 3.2-2.2.1-.2.2-.5.2-.8v-2.3z"></path><path id="Path_379" class="st24" d="M648.9 144.4c0-1.6-.1-2.9-.2-4.1h2.1v2.6h.1c.5-1.6 2-2.8 3.7-2.9h.7v2.3h-.8c-1.7 0-2.9 1.2-3.3 3 0 .4-.1.8-.1 1.1v7.1h-2.4l.2-9.1z"></path><path id="Path_380" class="st24" d="M661.3 137.2v3.2h3.5v1.8h-3.5v7.1c0 1.6.5 2.6 1.8 2.6.5 0 .9 0 1.4-.2l.2 1.9c-.7.2-1.4.3-2.1.3-1 0-1.9-.3-2.7-1-.7-1-1-2.3-.9-3.5v-7.2h-2v-1.8h2v-2.5l2.3-.7z"></path><path id="Path_381" class="st24" d="M667.5 134.1h2.4v8.3h.1c.4-.7 1-1.3 1.7-1.7.8-.5 1.6-.7 2.5-.7 1.7 0 4.6 1.1 4.6 5.6v7.9h-2.4V146c0-2.1-.8-3.9-3.1-3.9-1.5.1-2.7 1-3.2 2.4-.1.4-.2.8-.2 1.1v8h-2.4v-19.5z"></path></g></svg>