<?xml version="1.0" encoding="UTF-8"?>
<!-- Generator: Adobe Illustrator 20.1.0, SVG Export Plug-In . SVG Version: 6.00 Build 0)  -->
<svg version="1.1" id="Capa_1" xmlns="http://www.w3.org/2000/svg" xmlns:xlink="http://www.w3.org/1999/xlink" x="0px" y="0px" viewBox="0 0 2334.2 676.7" style="enable-background:new 0 0 2334.2 676.7;" xml:space="preserve">
<style type="text/css">
	.st0{fill:#E10E20;}
	.st1{fill:#FFFFFF;}
	.st2{fill:#020203;}
</style>
<g>
	<g>
		<ellipse class="st0" cx="297" cy="310.4" rx="214" ry="249.4"/>
		<path class="st1" d="M147.6,434.7c-20.5-35.2-32.6-78-32.6-124.2c0-46.2,12.1-89,32.6-124.2V434.7z"/>
		<path class="st1" d="M193.6,131.5c11.8-9.8,24.7-18,38.4-24.2v406.3c-13.7-6.2-26.5-14.4-38.4-24.2V131.5z"/>
		<path class="st1" d="M277.9,94.1c6.3-0.8,12.7-1.2,19.1-1.2c6.5,0,12.9,0.4,19.2,1.2v432.6c-6.3,0.8-12.7,1.2-19.2,1.2    c-6.5,0-12.8-0.4-19.1-1.2V94.1z"/>
		<path class="st1" d="M362.2,107.3c13.7,6.3,26.5,14.4,38.4,24.3v357.7c-11.8,9.8-24.7,18-38.4,24.3V107.3z"/>
		<path class="st1" d="M446.5,186.4c20.5,35.2,32.5,77.9,32.5,124c0,46.1-12,88.8-32.5,124V186.4z"/>
		<path class="st1" d="M101,310.4c0-57.2,17.6-109.5,46.6-149.9v13.6c-24.4,37.7-39,85-39,136.3c0,51.3,14.5,98.5,39,136.3v13.6    C118.6,419.9,101,367.6,101,310.4z"/>
		<path class="st1" d="M446.5,446.5c24.4-37.7,38.8-84.9,38.8-136.1c0-51.2-14.5-98.4-38.8-136.1v-13.7    c29,40.4,46.5,92.6,46.5,149.7c0,57.1-17.5,109.4-46.5,149.7V446.5z"/>
		<path class="st0" d="M505.5,533.7c1.5-6.3,4.4-12.7,7.9-17.8c-4.4-2.2-8.1-3.8-12-7.1c8.5-12.8,10.6-21.6,12-37l-0.6-87.2    c-5.6,25.4-19.1,58.6-30.8,76c-3.4,5.1-4.9,8.3-7,11.7c-1.2,2-8.1,13.3-7.9,27.1c-4.8,1-9.2,0.8-14.8,0.4c0.7,6,1.1,6.9-0.5,16.8    c-21.1,1.6-27.3,14.3-52.4,27.9c-12.2,6.6-20.2,9.6-38.5,16.3c42.6-0.5,73.9,5.5,100.6-12.5c3,4,5.3,7.9,7.3,12.7    c3.7-2.9,10.9-6.5,16.9-8c6.9,6.8,16.1,9.5,27.9,8.4C515.4,551.9,513,540.2,505.5,533.7z"/>
		<path class="st1" d="M508.8,517.6c-3.3,1.3-18.8,7.1-18.8,7.1l-0.2,0.2c-0.1-1.4-0.4-2.7-1-4l-0.1-0.3c6-3.6,9.8-8.7,9.8-9.4    c0-0.1-0.1-0.1,0-0.1c0,0,0,0,0,0.1C499,511.9,504.1,516.7,508.8,517.6z"/>
		<path class="st1" d="M495.9,444c15.6-34.5,11.9-33,15.4-47.3c-0.5,6.9-0.9,15.6-1.9,21.9c-6.8,37.5-16.5,65.4-28.3,96.1    c0,0-3.2-0.3-4.8,0c-2.8-3.3-3.7-7.8-3.7-7.8C467.1,484.2,484.1,470.1,495.9,444z"/>
		<path class="st1" d="M456.9,504.4l14.5,12.1l0,0.1c-0.4,0.3-0.9,0.7-1.3,1.1c-0.7,0.7-1.3,1.5-1.8,2.4l-0.1,0.2    c-7.4-3.6-12.4-3.8-12.4-3.8C457.8,508.6,456.9,504.4,456.9,504.4z"/>
		<path class="st1" d="M390.9,556.8c-7.3,1.7-13.2,1.6-17.8,1.8l15.5-4.8c33.6-12.6,42.1-32.1,64.8-32.5c5.3,0.1,9.7,1.4,13.6,3.7    l0,0.6c-0.2,1.5,0,2.9,0.4,4.3l0,0.2C451.7,537.8,415.9,551,390.9,556.8z"/>
		<path class="st1" d="M470.6,555.8c-0.9-2.4-2.1-6.3-5.6-10.1c4.7-4,5.6-6.1,7.2-10l0.1,0.1c1.5,0.9,3.1,1.4,4.7,1.5l0.2,0    L470.6,555.8z"/>
		<path class="st1" d="M473.6,530.5c-2.6-2.6-2.6-6.8,0-9.4c2.6-2.6,6.8-2.6,9.4,0c2.6,2.6,2.6,6.8,0,9.4    C480.4,533.1,476.2,533.1,473.6,530.5z"/>
		<path class="st1" d="M488,549.1c-3.4-4-4.9-7.1-6.2-12.5c1.7-0.5,3.7-1.5,4.9-3.2L510,557C501.1,557.8,493.5,555.8,488,549.1z"/>
		<path class="st0" d="M513.7,59.1c-11.8-1.1-21,1.6-27.9,8.4c-6-1.5-13.2-5.1-16.9-8c-2,4.7-4.3,8.7-7.3,12.7    c-26.8-18-58-11.9-100.6-12.5c18.3,6.7,26.3,9.7,38.5,16.3c25.1,13.5,31.2,26.2,52.4,27.9c1.6,9.9,1.2,10.7,0.5,16.8    c5.6-0.4,10-0.6,14.8,0.4c-0.2,13.9,6.7,25.2,7.9,27.1c2.1,3.4,3.6,6.6,7,11.7c11.7,17.4,25.2,50.6,30.8,76l0.6-87.2    c-1.4-15.4-3.5-24.2-12-37c3.8-3.3,7.6-5,12-7.1c-3.4-5.1-6.4-11.5-7.9-17.8C513,80.3,515.4,68.6,513.7,59.1z"/>
		<path class="st1" d="M508.8,102.8c-3.3-1.3-18.8-7.1-18.8-7.1l-0.2-0.2c-0.1,1.4-0.4,2.7-1,4l-0.1,0.3c6,3.6,9.8,8.7,9.8,9.4    c0,0.1-0.1,0.1,0,0.1c0,0,0,0,0-0.1C499,108.5,504.1,103.8,508.8,102.8z"/>
		<path class="st1" d="M495.9,176.5c15.6,34.5,11.9,33,15.4,47.3c-0.5-6.9-0.9-15.6-1.9-21.9c-6.8-37.5-16.5-65.4-28.3-96.1    c0,0-3.2,0.3-4.8,0c-2.8,3.3-3.7,7.8-3.7,7.8C467.1,136.2,484.1,150.3,495.9,176.5z"/>
		<path class="st1" d="M456.9,116l14.5-12.1l0-0.1c-0.4-0.3-0.9-0.7-1.3-1.1c-0.7-0.7-1.3-1.5-1.8-2.4l-0.1-0.2    c-7.4,3.6-12.4,3.8-12.4,3.8C457.8,111.8,456.9,116,456.9,116z"/>
		<path class="st1" d="M390.9,63.7c-7.3-1.7-13.2-1.6-17.8-1.8l15.5,4.8c33.6,12.6,42.1,32.1,64.8,32.5c5.3-0.1,9.7-1.4,13.6-3.7    l0-0.6c-0.2-1.5,0-2.9,0.4-4.3l0-0.2C451.7,82.6,415.9,69.4,390.9,63.7z"/>
		<path class="st1" d="M470.6,64.7c-0.9,2.4-2.1,6.3-5.6,10.1c4.7,4,5.6,6.1,7.2,10l0.1-0.1c1.5-0.9,3.1-1.4,4.7-1.5l0.2,0    L470.6,64.7z"/>
		<ellipse transform="matrix(0.705 -0.7092 0.7092 0.705 73.9911 367.1297)" class="st1" cx="478.3" cy="94.6" rx="6.6" ry="6.6"/>
		<path class="st1" d="M488,71.4c-3.4,4-4.9,7.1-6.2,12.5c1.7,0.5,3.7,1.5,4.9,3.2L510,63.4C501.1,62.6,493.5,64.7,488,71.4z"/>
		<path class="st0" d="M79.5,561.4c11.8,1.1,21.1-1.6,27.9-8.4c6,1.6,13.2,5.1,16.9,8c2-4.7,4.3-8.7,7.3-12.7    c26.8,18,58,11.9,100.6,12.5c-18.3-6.7-26.3-9.7-38.5-16.3c-25.1-13.5-31.2-26.2-52.4-27.9c-1.6-9.9-1.2-10.7-0.5-16.8    c-5.6,0.4-10,0.6-14.8-0.4c0.2-13.9-6.7-25.2-7.9-27.1c-2.1-3.4-3.6-6.6-7-11.7c-11.7-17.4-25.2-50.6-30.8-76l-0.6,87.2    c1.4,15.4,3.5,24.2,12,37c-3.8,3.3-7.6,5-12,7.1c3.4,5.1,6.4,11.5,7.9,17.8C80.2,540.2,77.8,551.9,79.5,561.4z"/>
		<path class="st1" d="M84.4,517.6c3.3,1.3,18.8,7.1,18.8,7.1l0.2,0.2c0.1-1.4,0.4-2.7,1-4l0.1-0.3c-6-3.6-9.8-8.7-9.8-9.4    c0-0.1,0.1-0.1,0-0.1c0,0,0,0,0,0.1C94.2,511.9,89.1,516.7,84.4,517.6z"/>
		<path class="st1" d="M97.3,444c-15.6-34.5-11.9-33-15.4-47.3c0.4,6.9,0.9,15.6,1.9,21.9c6.8,37.5,16.5,65.4,28.3,96.1    c0,0,3.2-0.3,4.8,0c2.8-3.3,3.7-7.8,3.7-7.8C126.1,484.2,109.1,470.1,97.3,444z"/>
		<path class="st1" d="M136.3,504.4l-14.5,12.1l-0.1,0.1c0.4,0.3,0.9,0.7,1.3,1.1c0.7,0.7,1.3,1.5,1.8,2.4l0.1,0.2    c7.4-3.6,12.4-3.8,12.4-3.8C135.4,508.6,136.3,504.4,136.3,504.4z"/>
		<path class="st1" d="M202.3,556.8c7.3,1.7,13.2,1.6,17.8,1.8l-15.5-4.8c-33.6-12.6-42.1-32.1-64.8-32.5c-5.3,0.1-9.7,1.4-13.6,3.7    l0,0.6c0.1,1.5,0,2.9-0.4,4.3l0,0.2C141.5,537.8,177.3,551,202.3,556.8z"/>
		<path class="st1" d="M122.6,555.8c0.9-2.4,2.1-6.3,5.6-10.1c-4.7-4-5.6-6.1-7.2-10l-0.1,0.1c-1.5,0.9-3.1,1.4-4.7,1.5l-0.2,0    L122.6,555.8z"/>
		<path class="st1" d="M119.6,530.5c2.6-2.6,2.6-6.8,0-9.4c-2.6-2.6-6.8-2.6-9.4,0c-2.6,2.6-2.6,6.8,0,9.4    C112.8,533.1,117,533.1,119.6,530.5z"/>
		<path class="st1" d="M105.2,549.1c3.4-4,4.9-7.1,6.2-12.5c-1.7-0.5-3.7-1.5-4.9-3.2L83.2,557C92.1,557.8,99.7,555.8,105.2,549.1z"/>
		<path class="st0" d="M87.7,86.7c-1.5,6.3-4.4,12.7-7.9,17.8c4.4,2.2,8.1,3.8,12,7.1c-8.5,12.8-10.6,21.6-12,37l0.6,87.2    c5.6-25.4,19.1-58.6,30.8-76c3.4-5.1,4.9-8.3,7-11.7c1.2-2,8.1-13.3,7.9-27.1c4.8-1,9.2-0.8,14.8-0.4c-0.7-6-1-6.9,0.5-16.8    c21.1-1.6,27.3-14.3,52.4-27.9c12.2-6.6,20.2-9.6,38.5-16.3c-42.6,0.5-73.8-5.5-100.6,12.5c-3-4-5.3-7.9-7.3-12.7    c-3.7,2.9-10.9,6.5-16.9,8c-6.9-6.8-16.1-9.5-27.9-8.4C77.8,68.6,80.2,80.3,87.7,86.7z"/>
		<path class="st1" d="M84.4,102.8c3.3-1.3,18.8-7.1,18.8-7.1l0.2-0.2c0.1,1.4,0.4,2.7,1,4l0.1,0.3c-6,3.6-9.8,8.7-9.8,9.4    c0,0.1,0.1,0.1,0,0.1c0,0,0,0,0-0.1C94.2,108.5,89.1,103.8,84.4,102.8z"/>
		<path class="st1" d="M97.3,176.5c-15.6,34.5-11.9,33-15.4,47.3c0.4-6.9,0.9-15.6,1.9-21.9c6.8-37.5,16.5-65.4,28.3-96.1    c0,0,3.2,0.3,4.8,0c2.8,3.3,3.7,7.8,3.7,7.8C126.1,136.2,109.1,150.3,97.3,176.5z"/>
		<path class="st1" d="M136.3,116l-14.5-12.1l-0.1-0.1c0.4-0.3,0.9-0.7,1.3-1.1c0.7-0.7,1.3-1.5,1.8-2.4l0.1-0.2    c7.4,3.6,12.4,3.8,12.4,3.8C135.4,111.8,136.3,116,136.3,116z"/>
		<path class="st1" d="M202.3,63.7c7.3-1.7,13.2-1.6,17.8-1.8l-15.5,4.8c-33.6,12.6-42.1,32.1-64.8,32.5c-5.3-0.1-9.7-1.4-13.6-3.7    l0-0.6c0.1-1.5,0-2.9-0.4-4.3l0-0.2C141.5,82.6,177.3,69.4,202.3,63.7z"/>
		<path class="st1" d="M122.6,64.7c0.9,2.4,2.1,6.3,5.6,10.1c-4.7,4-5.6,6.1-7.2,10l-0.1-0.1c-1.5-0.9-3.1-1.4-4.7-1.5l-0.2,0    L122.6,64.7z"/>
		
			<ellipse transform="matrix(0.7091 -0.7051 0.7051 0.7091 -33.2978 108.5401)" class="st1" cx="114.9" cy="94.6" rx="6.6" ry="6.6"/>
		<path class="st1" d="M105.2,71.4c3.4,4,4.9,7.1,6.2,12.5c-1.7,0.5-3.7,1.5-4.9,3.2L83.2,63.4C92.1,62.6,99.7,64.7,105.2,71.4z"/>
		<path class="st1" d="M400.6,113.8v9.7c-11.9-9.3-24.8-17.1-38.4-23.1V92C375.8,97.6,388.6,105,400.6,113.8z"/>
		<path class="st1" d="M297,78.9c6.5,0,12.9,0.4,19.2,1.1v7.9c-6.3-0.8-12.7-1.2-19.2-1.2c-6.5,0-12.8,0.4-19.1,1.1V80    C284.2,79.2,290.6,78.9,297,78.9z"/>
		<path class="st1" d="M232,91.9v8.4c-13.6,5.9-26.4,13.7-38.4,23v-9.7C205.6,104.9,218.4,97.6,232,91.9z"/>
		<path class="st1" d="M193.6,507.1v-9.7c11.9,9.3,24.8,17.1,38.4,23v8.4C218.4,523.3,205.6,515.9,193.6,507.1z"/>
		<path class="st1" d="M297,542c-6.5,0-12.8-0.4-19.1-1.1V533c6.3,0.8,12.7,1.1,19.1,1.1c6.5,0,12.9-0.4,19.2-1.2v7.8    C309.9,541.6,303.5,542,297,542z"/>
		<path class="st1" d="M362.2,528.8v-8.4c13.6-6,26.4-13.7,38.4-23.1v9.7C388.6,515.9,375.8,523.2,362.2,528.8z"/>
	</g>
	<g>
		<g>
			<path class="st2" d="M742.5,195.4h79.2v102.1h-26.4l-4-23.8c-10,11.6-24.5,28.8-59.1,28.8c-45.6,0-87.1-32.7-87.1-99.2     c0-51.7,28.8-100.5,92.6-100.3c58.1,0,81,37.7,83.1,63.9h-39.6c0-7.4-13.5-31.1-41.4-31.1c-28.2,0-54.4,19.5-54.4,68.1     c0,51.7,28.2,65.2,55.1,65.2c8.7,0,37.7-3.4,45.9-41.7h-44.1V195.4z"/>
			<path class="st2" d="M938.6,256.3c-2.9,10-13.5,15.3-23.7,15.3c-29.8,0-31.9-23.7-33-34.3h96.3v-6.6c0-64.1-38.3-77.3-66-77.3     c-61.5,0-67.3,54.1-67.3,71c0,57.8,30.3,76.8,69.9,76.8c24,0,52-11.1,61.7-44.9H938.6z M882.9,213.3     c2.1-18.5,11.3-29.6,28.8-29.6c11.9,0,26.4,6.9,28.5,29.6H882.9z"/>
			<path class="st2" d="M1129.7,297.5h-36.9v-85.2c0-10.3-0.5-27.7-24-27.7c-16.4,0-29,11.1-29,32.5v80.5h-36.9V157.1h35.4v20.6h0.5     c5-8.4,15.6-24.3,42.2-24.3c27.4,0,48.8,16.1,48.8,47V297.5z"/>
			<path class="st2" d="M1246.6,256.3c-2.9,10-13.5,15.3-23.7,15.3c-29.8,0-31.9-23.7-33-34.3h96.3v-6.6c0-64.1-38.3-77.3-66-77.3     c-61.5,0-67.3,54.1-67.3,71c0,57.8,30.4,76.8,69.9,76.8c24,0,52-11.1,61.7-44.9H1246.6z M1190.9,213.3     c2.1-18.5,11.3-29.6,28.8-29.6c11.9,0,26.4,6.9,28.5,29.6H1190.9z"/>
			<path class="st2" d="M1310.4,157.1h35.4v24.3h0.5c7.6-14.3,16.1-28,38.5-28c2.4,0,4.8,0.3,7.1,0.5v37.5     c-3.2-0.5-7.1-0.5-10.6-0.5c-28.8,0-34,17.9-34,33.5v73.1h-36.9V157.1z"/>
			<path class="st2" d="M1527.1,194c0-34.6-36.2-40.6-55.9-40.6c-28.8,0-58.6,6.1-62.8,49.1h35.6c1.1-8.2,4.2-19.5,22.7-19.5     c9.5,0,24.3,0.8,24.3,16.4c0,7.9-7.1,10.3-12.9,11.1l-33.3,5c-23.5,3.4-40.9,17.4-40.9,44.9c0,29,21.6,40.9,42.8,40.9     c25.1,0,36.9-11.6,45.4-20.3c0.8,7.9,1.3,10,3.4,16.6h39.8V292c-4.5-1.6-8.2-5.3-8.2-21.9V194z M1490.9,247.1     c0,17.1-16.6,27.7-33,27.7c-7.1,0-17.2-4-17.2-16.9c0-15.3,11.3-18.7,25.1-21.1c15.3-2.4,21.4-4.8,25.1-7.7V247.1z"/>
			<rect x="1561.1" y="108" class="st2" width="36.9" height="189.5"/>
			<path class="st2" d="M1671.4,140.5h-36.9v-34.3h36.9V140.5z M1671.4,157.1v140.4h-36.9V157.1H1671.4z"/>
			<path class="st2" d="M1748.2,157.1h23v26.4h-23v76.3c0,8.2,0.3,11.3,15.3,11.3c2.4,0,5-0.3,7.7-0.5v28     c-5.8,0.3-11.6,0.5-17.4,0.5h-4.8c-31.9,0-37.7-12.1-37.7-30.4v-85.2h-19v-26.4h19v-38h36.9V157.1z"/>
			<path class="st2" d="M1908.4,194c0-34.6-36.2-40.6-55.9-40.6c-28.8,0-58.6,6.1-62.8,49.1h35.6c1.1-8.2,4.2-19.5,22.7-19.5     c9.5,0,24.3,0.8,24.3,16.4c0,7.9-7.1,10.3-12.9,11.1l-33.3,5c-23.5,3.4-40.9,17.4-40.9,44.9c0,29,21.6,40.9,42.8,40.9     c25.1,0,36.9-11.6,45.4-20.3c0.8,7.9,1.3,10,3.4,16.6h39.8V292c-4.5-1.6-8.2-5.3-8.2-21.9V194z M1872.2,247.1     c0,17.1-16.6,27.7-33,27.7c-7.1,0-17.2-4-17.2-16.9c0-15.3,11.3-18.7,25.1-21.1c15.3-2.4,21.4-4.8,25.1-7.7V247.1z"/>
			<path class="st2" d="M1982.8,157.1h23v26.4h-23v76.3c0,8.2,0.3,11.3,15.3,11.3c2.4,0,5-0.3,7.6-0.5v28     c-5.8,0.3-11.6,0.5-17.4,0.5h-4.8c-31.9,0-37.7-12.1-37.7-30.4v-85.2h-19v-26.4h19v-38h36.9V157.1z"/>
		</g>
		<path class="st2" d="M779,371.9H742v67.3h-0.5c-5.8-9-16.9-21.9-40.6-21.9c-30.9,0-58.3,23.7-58.3,72.3    c0,38.5,17.4,75.5,59.1,75.5c15.3,0,31.7-5.5,40.6-21.4h0.5v17.7H779V371.9z M680.5,492.3c0-22.2,7.9-43,31.4-43    c25.3,0,31.7,22.7,31.7,45.1c0,20.8-9.2,40.4-32.7,40.4C687.1,534.7,680.5,508.9,680.5,492.3z"/>
		<path class="st2" d="M894.5,520.2c-2.9,10-13.5,15.3-23.8,15.3c-29.8,0-31.9-23.7-33-34.3h96.3v-6.6c0-64.1-38.3-77.3-66-77.3    c-61.5,0-67.3,54.1-67.3,71c0,57.8,30.3,76.8,69.9,76.8c24,0,52-11.1,61.7-44.9H894.5z M838.9,477.2c2.1-18.5,11.3-29.6,28.8-29.6    c11.9,0,26.4,6.9,28.5,29.6H838.9z"/>
		<g>
			<path class="st2" d="M1155.8,433.9c-3.2-11.3-9.2-32.7-42-32.7c-19,0-47,12.7-47,66.2c0,34,13.5,64.7,47,64.7     c21.9,0,37.2-12.4,42-35.6h39.6c-7.9,41.2-34.8,69.9-82.3,69.9c-50.4,0-86.6-34-86.6-99.5c0-66.2,38.3-100,87.1-100     c56.7,0,79.7,39.1,81.8,67H1155.8z"/>
			<path class="st2" d="M1336.3,457.9c0-34.6-36.2-40.6-55.9-40.6c-28.8,0-58.6,6.1-62.8,49.1h35.6c1.1-8.2,4.2-19.5,22.7-19.5     c9.5,0,24.3,0.8,24.3,16.4c0,7.9-7.1,10.3-12.9,11.1l-33.2,5c-23.5,3.4-40.9,17.4-40.9,44.9c0,29,21.6,40.9,42.7,40.9     c25.1,0,36.9-11.6,45.4-20.3c0.8,7.9,1.3,10,3.4,16.6h39.8v-5.5c-4.5-1.6-8.2-5.3-8.2-21.9V457.9z M1300.1,511     c0,17.1-16.6,27.7-33,27.7c-7.1,0-17.2-4-17.2-16.9c0-15.3,11.3-18.7,25.1-21.1c15.3-2.4,21.4-4.8,25.1-7.7V511z"/>
			<path class="st2" d="M1410.7,421h23v26.4h-23v76.3c0,8.2,0.3,11.3,15.3,11.3c2.4,0,5-0.3,7.6-0.5v28c-5.8,0.3-11.6,0.5-17.4,0.5     h-4.7c-31.9,0-37.7-12.1-37.7-30.4v-85.2h-19V421h19v-38h36.9V421z"/>
			<path class="st2" d="M1570.9,457.9c0-34.6-36.2-40.6-55.9-40.6c-28.8,0-58.6,6.1-62.8,49.1h35.6c1.1-8.2,4.2-19.5,22.7-19.5     c9.5,0,24.3,0.8,24.3,16.4c0,7.9-7.1,10.3-12.9,11.1l-33.3,5c-23.5,3.4-40.9,17.4-40.9,44.9c0,29,21.6,40.9,42.8,40.9     c25.1,0,36.9-11.6,45.4-20.3c0.8,7.9,1.3,10,3.4,16.6h39.8v-5.5c-4.5-1.6-8.2-5.3-8.2-21.9V457.9z M1534.7,511     c0,17.1-16.6,27.7-33,27.7c-7.1,0-17.2-4-17.2-16.9c0-15.3,11.3-18.7,25.1-21.1c15.3-2.4,21.4-4.8,25.1-7.7V511z"/>
			<rect x="1604.9" y="371.9" class="st2" width="36.9" height="189.5"/>
			<path class="st2" d="M1803.9,561.4h-35.4v-19.8h-0.5c-8.4,15-23.2,23.5-42.7,23.5c-27.7,0-47.8-15.8-47.8-51.7V421h36.9v87.1     c0,21.6,12.7,25.9,24,25.9c12.1,0,28.5-6.9,28.5-31.9v-81h36.9V561.4z"/>
			<path class="st2" d="M1965.4,561.4h-36.9v-85.2c0-10.3-0.5-27.7-24-27.7c-16.4,0-29,11.1-29,32.5v80.5h-36.9V421h35.4v20.6h0.5     c5-8.4,15.6-24.3,42.2-24.3c27.4,0,48.8,16.1,48.8,47V561.4z"/>
			<path class="st2" d="M2071.3,559c-17.4,52-22.2,58.8-54.4,58.8c-5,0-11.3-0.3-16.6-0.5v-29.6c1.6,0.3,4,0.5,7.1,0.5     c13.5,0,20.8-1.8,24.3-21.1L1980,421h41.2l30.1,103.4h0.5l28.8-103.4h39.1L2071.3,559z"/>
			<path class="st2" d="M2247.1,457.9c0-34.6-36.1-40.6-55.9-40.6c-28.8,0-58.6,6.1-62.8,49.1h35.6c1.1-8.2,4.2-19.5,22.7-19.5     c9.5,0,24.3,0.8,24.3,16.4c0,7.9-7.1,10.3-12.9,11.1l-33.2,5c-23.5,3.4-40.9,17.4-40.9,44.9c0,29,21.6,40.9,42.8,40.9     c25.1,0,36.9-11.6,45.4-20.3c0.8,7.9,1.3,10,3.4,16.6h39.8v-5.5c-4.5-1.6-8.2-5.3-8.2-21.9V457.9z M2210.9,511     c0,17.1-16.6,27.7-33,27.7c-7.1,0-17.2-4-17.2-16.9c0-15.3,11.3-18.7,25.1-21.1c15.3-2.4,21.4-4.8,25.1-7.7V511z"/>
		</g>
	</g>
</g>
</svg>