<svg xmlns="http://www.w3.org/2000/svg" viewBox="0 0 270 71" enable-background="new 0 0 270 71"><path fill="#4F84BD" d="M30 5c-16.6 0-30 13.4-30 30s13.4 30 30 30 30-13.4 30-30c.1-16.6-13.4-30-30-30zm.2 8.4c2.4 0 4.3 1.9 4.3 4.3s-1.9 4.3-4.3 4.3-4.3-1.9-4.3-4.3c0-2.3 1.9-4.3 4.3-4.3zm0 10.2c2.4 0 4.3 1.9 4.3 4.3s-1.9 4.3-4.3 4.3-4.3-1.9-4.3-4.3 1.9-4.3 4.3-4.3zm-10.5-10.2c2.4 0 4.3 1.9 4.3 4.3s-1.9 4.3-4.3 4.3-4.3-1.9-4.3-4.3c0-2.3 2-4.3 4.3-4.3zm0 10.2c2.4 0 4.3 1.9 4.3 4.3s-1.9 4.3-4.3 4.3-4.3-1.9-4.3-4.3 2-4.3 4.3-4.3zm0 10.4c2.4 0 4.3 1.9 4.3 4.3s-1.9 4.3-4.3 4.3-4.3-1.9-4.3-4.3c0-2.3 2-4.3 4.3-4.3zm5.1 18.3c0 1.1 0 2.4-1.4 3.3-.9.6-2 .8-2.9.8-1 0-2-.1-2.9-.8-1.4-1-1.4-2.3-1.4-3.3v-6h2.8v6c0 .6.1 1 .5 1.4.3.3.6.3 1 .3s.7-.1 1-.3c.4-.4.5-.8.5-1.4v-6h2.9v6h-.1zm5.4-18.3c2.4 0 4.3 1.9 4.3 4.3s-1.9 4.3-4.3 4.3-4.3-1.9-4.3-4.3c0-2.3 1.9-4.3 4.3-4.3zm3 18.4c-.6.4-1.2.5-2.8.5h-.8v3.2h-2.5v-9.9h4.2c2 0 3.3 1.2 3.3 3.4-.1 1.2-.6 2.2-1.4 2.8zm10.4-3.2c-1-.8-1.4-.8-2.1-.8-1.5 0-2.5 1.1-2.5 2.8 0 1.6 1.1 2.8 2.6 2.8.8 0 1.2-.1 2.1-.8v2.6c-.9.5-1.5.6-2.4.6-3 0-5.1-2.1-5.1-5.1s2.2-5.2 5.1-5.2c.9 0 1.5.1 2.4.6l-.1 2.5zm-3.3-6.6c-2.4 0-4.3-1.9-4.3-4.3 0-2.3 2-4.3 4.3-4.3 2.4 0 4.3 1.9 4.3 4.3s-1.9 4.3-4.3 4.3zm0-10.4c-2.4 0-4.3-1.9-4.3-4.3s1.9-4.3 4.3-4.3 4.3 1.9 4.3 4.3-1.9 4.3-4.3 4.3zm0-10.2c-2.3 0-4.3-1.9-4.3-4.3s1.9-4.3 4.3-4.3 4.3 1.9 4.3 4.3-1.9 4.3-4.3 4.3zm-9.5 28.7h-1.1v-2.3h1.1c.8 0 1 .5 1.1 1.1-.1.6-.4 1.2-1.1 1.2zm45-12.6h3.6c1.3 0 2.3-.4 3-1.1.7-.7 1.1-1.8 1.1-3.1s-.4-2.3-1.1-3.1c-.7-.7-1.7-1.1-3-1.1h-3.6v8.4zm2.2-6.5h1c.7 0 1.3.2 1.7.6.4.4.6.9.6 1.7s-.2 1.4-.5 1.8c-.4.4-1 .6-1.8.6h-1v-4.7zm8.2 6.5h6.8v-1.9h-4.7v-1.6h4.2v-1.7h-4.2v-1.5h4.5v-1.7h-6.6v8.4zm22.3-5.4c0-.7-.2-1.2-.6-1.7s-.9-.8-1.4-1.1c-.6-.2-1.2-.4-1.8-.4-.9 0-1.6.2-2.2.6s-1.1.9-1.4 1.6-.5 1.4-.5 2.2.2 1.6.5 2.2c.3.7.8 1.2 1.4 1.6.6.4 1.4.6 2.2.6 1.1 0 2-.3 2.7-.9.7-.6 1.1-1.4 1.2-2.5h-2.2c0 .5-.2.9-.5 1.1-.3.3-.7.4-1.2.4s-.8-.1-1.1-.4c-.3-.2-.5-.5-.6-.9s-.2-.8-.2-1.2.1-.8.2-1.2.3-.7.6-.9c.3-.2.7-.4 1.1-.4.5 0 .8.1 1.1.3.3.2.5.5.5 1h2.2zm5.9-.7l1 2.9h-1.9l.9-2.9zm-4.2 6.1h2.2l.5-1.5h2.9l.5 1.5h2.3l-3.1-8.4h-2.2l-3.1 8.4zm16.3-8.4h-7.2v1.9h2.5v6.5h2.2v-6.5h2.5v-1.9zm4.8 2.3l1 2.9h-1.9l.9-2.9zm-4.2 6.1h2.2l.5-1.5h2.9l.5 1.5h2.3l-3.1-8.4h-2.2l-3.1 8.4zm10.5 0h6.1v-1.9h-3.9v-6.5h-2.2v8.4zm15.8-8.4h-2.2v5.1c0 .5-.1.9-.3 1.2s-.6.4-1.1.4-.9-.1-1.1-.4c-.2-.3-.3-.7-.3-1.2v-5.1h-2.2v4.9c0 1.2.3 2.1.9 2.7.6.6 1.5.9 2.8.9s2.2-.3 2.8-.9c.6-.6.9-1.5.9-2.7v-4.9h-.2zm2.9 8.4h2v-5.3l3 5.3h2.2v-8.4h-2.1v5.2l-2.9-5.2h-2.2v8.4zm17.4-8.4h-2.5l-1.6 3.4-1.7-3.4h-2.5l3.1 5.2v3.2h2.2v-3.2l3-5.2zm4.6 2.3l1 2.9h-1.9l.9-2.9zm-4.3 6.1h2.2l.5-1.5h2.9l.5 1.5h2.3l-3.1-8.4h-2.2l-3.1 8.4zm-90.9-24.4h-2.2v5.1c0 .5-.1.9-.3 1.2-.2.3-.6.4-1.1.4s-.9-.1-1.1-.4-.3-.7-.3-1.2v-5.1h-2.2v4.9c0 1.2.3 2.1.9 2.7s1.5.9 2.8.9 2.2-.3 2.8-.9c.6-.6.9-1.5.9-2.7v-4.9h-.2zm2.8 8.4h2.1v-5.2l2.9 5.2h2.3v-8.4h-2.1v5.2l-2.9-5.2h-2.3v8.4zm10.2-8.4h2.2v8.4h-2.2v-8.4zm12 0h-2.2l-1.7 6.3-1.6-6.3h-2.3l2.6 8.4h2.5l2.7-8.4zm2.1 8.4h6.8v-1.8h-4.6v-1.6h4.1v-1.7h-4.1v-1.5h4.5v-1.8h-6.7v8.4zm9.4 0h2.2v-3.1h1.7c.5 0 .8.2 1 .5s.2.7.2 1.2v.4c0 .2 0 .3.1.5 0 .2.1.3.1.4h2.2c-.1-.1-.2-.3-.2-.5l-.1-.8v-.6c0-.3-.1-.5-.2-.8s-.2-.5-.4-.7c-.2-.2-.4-.4-.7-.4.4-.2.8-.5 1-.8.2-.4.3-.8.3-1.3 0-.6-.2-1-.4-1.4-.3-.3-.6-.6-1.1-.8-.4-.2-.9-.2-1.4-.2h-4.3v8.4zm2.2-6.6h1.7c.3 0 .6.1.8.2.2.1.3.4.3.7s-.1.6-.3.7c-.2.2-.4.3-.8.3h-1.8l.1-1.9zm7.2 3.8c0 .7.2 1.3.5 1.7.3.4.8.8 1.3 1s1.1.3 1.8.3c.6 0 1.2-.1 1.8-.3.6-.2 1-.5 1.3-.9s.5-1 .5-1.7c0-.5-.1-.9-.4-1.2-.2-.3-.5-.6-.9-.8-.4-.2-.8-.3-1.2-.4l-1.2-.3c-.4-.1-.7-.2-.9-.3s-.4-.3-.4-.5c0-.3.1-.5.4-.6.2-.1.5-.2.7-.2.4 0 .7.1.9.2.3.2.4.4.4.8h2.2c0-.6-.2-1.1-.5-1.5s-.7-.7-1.2-.9-1-.3-1.6-.3c-.5 0-1.1.1-1.6.3s-1 .4-1.3.8c-.3.4-.5.9-.5 1.5 0 .5.1.9.4 1.2.2.3.5.6.9.7.4.2.8.3 1.2.4l1.2.3c.4.1.7.2.9.3.2.1.3.3.4.6 0 .3-.2.5-.4.7-.3.1-.6.2-.9.2-.5 0-.8-.1-1.1-.3-.3-.2-.4-.5-.5-1l-2.2.2zm9.8-5.6h2.2v8.4h-2.2v-8.4zm11.7 0h-7.2v1.9h2.5v6.5h2.2v-6.5h2.5v-1.9zm4.8 2.4l1 2.9h-1.9l.9-2.9zm-4.2 6h2.2l.5-1.5h2.9l.5 1.5h2.3l-3.1-8.4h-2.2l-3.1 8.4zm16.3-8.4h-7.2v1.9h2.5v6.5h2.2v-6.5h2.5v-1.9zm6.6 8.4h2.2v-2.8h1.8c.9 0 1.7-.2 2.2-.7s.8-1.2.8-2.2c0-.7-.2-1.2-.4-1.6-.3-.4-.7-.7-1.1-.9-.5-.2-1-.3-1.5-.3h-4v8.5zm2.2-6.6h1.5c.3 0 .6.1.8.3s.3.5.3.8c0 .4-.1.6-.3.8-.2.2-.5.2-.8.2h-1.5v-2.1zm6.9 2.4c0 .8.2 1.6.5 2.2.3.7.8 1.2 1.4 1.6.6.4 1.4.6 2.2.6.9 0 1.6-.2 2.2-.6.6-.4 1.1-.9 1.4-1.6.3-.7.5-1.4.5-2.2 0-.8-.2-1.6-.5-2.2-.3-.7-.8-1.2-1.4-1.6-.6-.4-1.4-.6-2.2-.6-.9 0-1.6.2-2.2.6-.6.4-1.1.9-1.4 1.6-.3.7-.5 1.4-.5 2.2zm2.2 0c0-.4.1-.8.2-1.2.1-.4.3-.7.6-.9s.7-.4 1.1-.4c.5 0 .8.1 1.1.4.3.2.5.5.6.9s.2.8.2 1.2c0 .4-.1.8-.2 1.2-.1.4-.3.7-.6.9-.3.2-.7.4-1.1.4-.5 0-.8-.1-1.1-.4-.3-.2-.5-.5-.6-.9s-.2-.7-.2-1.2zm8.7 4.2h6.1v-1.8h-3.9v-6.6h-2.2v8.4zm8.6-8.4h2.2v8.4h-2.2v-8.4zm11.7 0h-7.2v1.9h2.5v6.5h2.2v-6.5h2.5v-1.9zm5.6-2.2h-2.1l1.8 1.7h1.4l-1.1-1.7zm-3.2 10.6h6.8v-1.9h-4.6v-1.6h4.1v-1.6h-4.1v-1.5h4.5v-1.7h-6.7v8.3zm17.2-5.4c0-.7-.2-1.2-.6-1.7-.4-.5-.9-.8-1.4-1.1-.6-.2-1.2-.4-1.8-.4-.9 0-1.6.2-2.2.6-.6.4-1.1.9-1.4 1.6-.3.7-.5 1.4-.5 2.2s.2 1.6.5 2.2c.3.7.8 1.2 1.4 1.6.6.4 1.4.6 2.2.6 1.1 0 2-.3 2.7-.9s1.1-1.4 1.2-2.5h-2.2c0 .5-.2.9-.5 1.1-.3.3-.7.4-1.2.4s-.8-.1-1.1-.4c-.3-.2-.5-.5-.6-.9s-.2-.8-.2-1.2c0-.4.1-.8.2-1.2.1-.4.3-.7.6-.9.3-.2.7-.4 1.1-.4.5 0 .8.1 1.1.3s.5.5.5 1h2.2zm2.5 5.4h2.1v-5.2l2.9 5.2h2.3v-8.4h-2.1v5.2l-2.9-5.2h-2.3v8.4zm10.2-8.4h2.2v8.4h-2.2v-8.4zm12.8 3c0-.7-.2-1.2-.6-1.7s-.9-.8-1.4-1.1c-.6-.2-1.2-.4-1.8-.4-.8 0-1.6.2-2.2.6-.6.4-1.1.9-1.4 1.6-.3.7-.5 1.4-.5 2.2s.2 1.6.5 2.2c.3.7.8 1.2 1.4 1.6.6.4 1.4.6 2.2.6 1.1 0 2-.3 2.7-.9s1.1-1.4 1.2-2.5h-2.2c0 .5-.2.9-.5 1.1-.3.3-.7.4-1.2.4s-.8-.1-1.1-.4c-.3-.2-.5-.5-.6-.9s-.2-.8-.2-1.2c0-.4.1-.8.2-1.2.1-.4.3-.7.6-.9.3-.2.7-.4 1.1-.4.5 0 .8.1 1.1.3s.5.5.5 1h2.2zm6-.6l1 2.9h-1.9l.9-2.9zm-4.3 6h2.2l.5-1.5h2.9l.5 1.5h2.3l-3.1-8.4h-2.2l-3.1 8.4zm-185.3 33.4v-9.7h3.6c.7 0 1.3.1 1.8.3.4.2.8.5 1 .9.3.4.4.8.4 1.3 0 .4-.1.8-.3 1.2-.2.4-.6.7-1 .9.6.2 1 .5 1.4.9.3.4.5.9.5 1.5 0 .5-.1.9-.3 1.3-.2.4-.4.7-.7.9-.3.2-.6.4-1.1.5-.4.1-.9.2-1.6.2h-3.7v-.2zm1.3-5.6h2.1c.6 0 1 0 1.2-.1.3-.1.6-.3.7-.5.2-.2.2-.5.2-.8s-.1-.6-.2-.8c-.2-.2-.4-.4-.7-.5-.3-.1-.8-.1-1.5-.1h-1.9v2.8h.1zm0 4.4h3.3c.3-.1.5-.1.7-.3.2-.1.4-.3.5-.5s.2-.5.2-.8c0-.4-.1-.7-.3-.9-.2-.3-.4-.5-.8-.6-.3-.1-.8-.2-1.4-.2h-2.2v3.3zm6.7 1.2l3.7-9.7h1.4l4 9.7h-1.5l-1.1-2.9h-4l-1.1 2.9h-1.4zm2.8-4h3.3l-1-2.7-.7-2c-.1.6-.3 1.2-.5 1.8l-1.1 2.9zm7.3 4v-9.7h4.3c.9 0 1.5.1 2 .3.4.2.8.5 1.1.9.3.4.4.9.4 1.5 0 .7-.2 1.3-.7 1.7-.4.5-1.1.8-2.1.9.3.2.6.3.8.5.4.3.7.8 1.1 1.3l1.7 2.6h-1.6l-1.3-2c-.4-.6-.7-1-.9-1.3-.2-.3-.5-.5-.7-.6l-.6-.3h-2.2v4.3h-1.3v-.1zm1.3-5.4h2.8c.6 0 1-.1 1.4-.2.3-.1.6-.3.8-.6.2-.3.3-.6.3-.9 0-.5-.2-.8-.5-1.1s-.9-.4-1.6-.4h-3.1v3.2h-.1zm15.4 2l1.3.3c-.3 1.1-.8 1.9-1.4 2.4-.7.6-1.6.8-2.6.8s-1.9-.2-2.5-.6c-.7-.4-1.2-1-1.5-1.8s-.5-1.7-.5-2.6c0-1 .2-1.9.6-2.6.4-.8.9-1.3 1.6-1.7s1.5-.6 2.3-.6c1 0 1.8.2 2.4.7.7.5 1.1 1.2 1.4 2.1l-1.3.3c-.2-.7-.6-1.2-1-1.5s-1-.5-1.6-.5c-.7 0-1.4.2-1.9.5-.5.4-.9.8-1.1 1.4-.2.6-.3 1.2-.3 1.9 0 .8.1 1.5.4 2.2.2.6.6 1.1 1.1 1.4.5.3 1.1.5 1.6.5.7 0 1.3-.2 1.8-.6.7-.6 1-1.2 1.2-2zm2.8 3.4v-9.7h7v1.1h-5.7v3h5.4v1.1h-5.4v3.3h5.9v1.1h-7.2v.1zm9 0v-9.7h1.3v8.5h4.8v1.1h-6.1v.1zm7.2-4.7c0-1.6.4-2.9 1.3-3.8.9-.9 2-1.4 3.3-1.4.9 0 1.7.2 2.4.6.7.4 1.3 1 1.6 1.8.4.8.6 1.6.6 2.6s-.2 1.9-.6 2.6c-.4.8-1 1.4-1.7 1.8-.7.4-1.5.6-2.4.6s-1.7-.2-2.4-.7c-.7-.4-1.3-1-1.6-1.8-.3-.7-.5-1.5-.5-2.3zm1.3 0c0 1.2.3 2.1.9 2.8.6.7 1.4 1 2.4 1s1.8-.3 2.4-1c.6-.7.9-1.6.9-2.9 0-.8-.1-1.5-.4-2.1-.3-.6-.7-1-1.2-1.4-.5-.3-1.1-.5-1.7-.5-.9 0-1.7.3-2.3.9-.7.7-1 1.7-1 3.2zm9.6 4.7v-9.7h1.3l5.1 7.6v-7.6h1.2v9.7h-1.3l-5.1-7.6v7.6h-1.2zm8.7 0l3.7-9.7h1.4l4 9.7h-1.5l-1.1-2.9h-4l-1.1 2.9h-1.4zm2.8-4h3.3l-1-2.7-.7-2c-.1.6-.3 1.2-.5 1.8l-1.1 2.9zm9.4 4v-8h-2.9v-1.6h7.7v1.6h-2.9v8h-1.9zm6.1 0v-9.7h7.2v1.6h-5.2v2.1h4.9v1.6h-4.9v2.6h5.4v1.6h-7.4v.2zm15.2-3.6l1.9.6c-.3 1.1-.8 1.8-1.4 2.4-.7.5-1.5.8-2.6.8-1.3 0-2.3-.4-3.2-1.3-.8-.9-1.2-2.1-1.2-3.6 0-1.6.4-2.9 1.2-3.8.8-.9 1.9-1.3 3.3-1.3 1.2 0 2.1.4 2.9 1.1.4.4.8 1 1 1.8l-1.9.5c-.1-.5-.4-.9-.7-1.2-.4-.3-.8-.4-1.3-.4-.7 0-1.3.3-1.7.8s-.7 1.3-.7 2.5.2 2.1.7 2.6c.4.5 1 .8 1.7.8.5 0 1-.2 1.3-.5.3-.6.5-1.1.7-1.8zm3.6 3.6v-9.7h2v3.8h3.8v-3.8h2v9.7h-2v-4.2h-3.8v4.2h-2z"/></svg>